<svg width="32" height="32" viewBox="0 0 32 32" fill="none" xmlns="http://www.w3.org/2000/svg">
<g clip-path="url(#clip0)">
<path d="M27.5543 5.39585C28.1722 5.39585 28.6731 4.89497 28.6731 4.27709C28.6731 3.65921 28.1722 3.15833 27.5543 3.15833C26.9364 3.15833 26.4355 3.65921 26.4355 4.27709C26.4355 4.89497 26.9364 5.39585 27.5543 5.39585Z" fill="#B3E59F"/>
<path d="M27.0709 5.28625C26.9593 5.23281 26.8551 5.16036 26.7625 5.06779C26.3256 4.63086 26.3261 3.92252 26.763 3.48553C27.1999 3.0486 27.9078 3.0486 28.3447 3.48553C28.4373 3.57811 28.5098 3.68231 28.5632 3.79395C28.1474 3.59505 27.6337 3.66756 27.2894 4.01191C26.945 4.35627 26.872 4.87045 27.0709 5.28625Z" fill="#95D6A4"/>
<path d="M0.99796 30.8327C0.292998 30.1278 0.292998 28.9848 0.99796 28.2799L12.9091 16.3687L15.462 18.9216L3.55084 30.8327C2.84587 31.5377 1.70292 31.5377 0.99796 30.8327Z" fill="#BC95E2"/>
<path d="M1.6104 31.2349C1.38719 31.147 1.17929 31.0132 0.998889 30.8328C0.29424 30.1282 0.29374 28.985 0.998889 28.2798L12.91 16.3687L13.9241 17.3828L2.01295 29.2939C1.4882 29.8187 1.35437 30.5863 1.6104 31.2349Z" fill="#AC80DD"/>
<path d="M15.5445 3.18253C16.1624 3.18253 16.6633 2.68165 16.6633 2.06377C16.6633 1.44589 16.1624 0.945007 15.5445 0.945007C14.9267 0.945007 14.4258 1.44589 14.4258 2.06377C14.4258 2.68165 14.9267 3.18253 15.5445 3.18253Z" fill="#FFE07D"/>
<path d="M15.0612 3.07391C14.9495 3.02047 14.8453 2.94802 14.7528 2.85545C14.3158 2.41852 14.3163 1.71018 14.7533 1.27319C15.1902 0.836263 15.898 0.836263 16.3349 1.27319C16.4275 1.36577 16.5 1.46997 16.5535 1.58161C16.1377 1.38271 15.624 1.45521 15.2796 1.79957C14.9352 2.14392 14.8622 2.65811 15.0612 3.07391Z" fill="#FFD064"/>
<path d="M30.4137 14.4769C31.0316 14.4769 31.5325 13.976 31.5325 13.3581C31.5325 12.7403 31.0316 12.2394 30.4137 12.2394C29.7958 12.2394 29.2949 12.7403 29.2949 13.3581C29.2949 13.976 29.7958 14.4769 30.4137 14.4769Z" fill="#DF73C1"/>
<path d="M29.9303 14.3673C29.8187 14.3139 29.7145 14.2414 29.6219 14.1488C29.1849 13.7119 29.1855 13.0036 29.6224 12.5666C30.0593 12.1297 30.7672 12.1297 31.2041 12.5666C31.2967 12.6592 31.3692 12.7634 31.4226 12.875C31.0068 12.6761 30.4931 12.7486 30.1488 13.093C29.8044 13.4373 29.7314 13.9515 29.9303 14.3673Z" fill="#DD4FB1"/>
<path d="M20.1277 21.8311C25.7213 21.8311 30.2559 17.2965 30.2559 11.7029C30.2559 6.10925 25.7213 1.57471 20.1277 1.57471C14.5341 1.57471 9.99951 6.10925 9.99951 11.7029C9.99951 17.2965 14.5341 21.8311 20.1277 21.8311Z" fill="#F9EFDA"/>
<path d="M12.9163 18.8138C9.01058 14.8552 9.02752 8.47963 12.9659 4.54114C16.9044 0.602719 23.28 0.585779 27.2386 4.49145C25.0654 2.41775 20.1658 3.89156 16.241 7.81623C12.3163 11.7409 10.8426 16.6406 12.9163 18.8138Z" fill="#F6E4C1"/>
<path d="M20.9606 2.87705C21.5784 2.87705 22.0793 2.37616 22.0793 1.75829C22.0793 1.14041 21.5784 0.639526 20.9606 0.639526C20.3427 0.639526 19.8418 1.14041 19.8418 1.75829C19.8418 2.37616 20.3427 2.87705 20.9606 2.87705Z" fill="#DF73C1"/>
<path d="M20.4772 2.76746C20.3656 2.71401 20.2614 2.64157 20.1688 2.54899C19.7318 2.11206 19.7324 1.40373 20.1693 0.966735C20.6062 0.529806 21.314 0.529806 21.751 0.966735C21.8435 1.05931 21.9161 1.16351 21.9695 1.27515C21.5537 1.07625 21.04 1.14876 20.6957 1.49311C20.3512 1.83753 20.2782 2.35172 20.4772 2.76746Z" fill="#DD4FB1"/>
<path d="M23.9347 6.99113C24.5526 6.99113 25.0535 6.49024 25.0535 5.87236C25.0535 5.25449 24.5526 4.7536 23.9347 4.7536C23.3168 4.7536 22.8159 5.25449 22.8159 5.87236C22.8159 6.49024 23.3168 6.99113 23.9347 6.99113Z" fill="#FFE07D"/>
<path d="M23.4513 6.88251C23.3397 6.82906 23.2355 6.75662 23.1429 6.66404C22.7059 6.22705 22.7065 5.51878 23.1434 5.08179C23.5803 4.64486 24.2882 4.64486 24.7251 5.08179C24.8177 5.17436 24.8902 5.27856 24.9436 5.3902C24.5278 5.1913 24.0141 5.26381 23.6698 5.60816C23.3254 5.95252 23.2523 6.46671 23.4513 6.88251Z" fill="#FFD064"/>
<path d="M25.503 13.136C26.1209 13.136 26.6218 12.6351 26.6218 12.0172C26.6218 11.3993 26.1209 10.8984 25.503 10.8984C24.8852 10.8984 24.3843 11.3993 24.3843 12.0172C24.3843 12.6351 24.8852 13.136 25.503 13.136Z" fill="#DF73C1"/>
<path d="M25.0197 13.0273C24.908 12.9739 24.8038 12.9015 24.7113 12.8089C24.2743 12.372 24.2748 11.6636 24.7118 11.2266C25.1487 10.7897 25.8565 10.7897 26.2935 11.2266C26.386 11.3192 26.4585 11.4234 26.512 11.535C26.0962 11.3361 25.5825 11.4086 25.2381 11.753C24.8937 12.0974 24.8207 12.6115 25.0197 13.0273Z" fill="#DD4FB1"/>
<path d="M15.0441 7.73759C15.6619 7.73759 16.1628 7.2367 16.1628 6.61882C16.1628 6.00095 15.6619 5.50006 15.0441 5.50006C14.4262 5.50006 13.9253 6.00095 13.9253 6.61882C13.9253 7.2367 14.4262 7.73759 15.0441 7.73759Z" fill="#DF73C1"/>
<path d="M14.5607 7.62897C14.449 7.57552 14.3448 7.50308 14.2523 7.4105C13.8153 6.97357 13.8158 6.26524 14.2528 5.82825C14.6897 5.39132 15.3975 5.39132 15.8345 5.82825C15.927 5.92082 15.9995 6.02502 16.053 6.13666C15.6372 5.93776 15.1235 6.01027 14.7791 6.35462C14.4348 6.69898 14.3618 7.21317 14.5607 7.62897Z" fill="#DD4FB1"/>
<path d="M21.087 13.0035C21.7049 13.0035 22.2058 12.5026 22.2058 11.8847C22.2058 11.2668 21.7049 10.7659 21.087 10.7659C20.4692 10.7659 19.9683 11.2668 19.9683 11.8847C19.9683 12.5026 20.4692 13.0035 21.087 13.0035Z" fill="#B3E59F"/>
<path d="M20.6036 12.8939C20.492 12.8404 20.3878 12.768 20.2952 12.6754C19.8583 12.2385 19.8588 11.5301 20.2957 11.0931C20.7327 10.6562 21.4405 10.6562 21.8774 11.0931C21.97 11.1857 22.0425 11.2899 22.096 11.4016C21.6802 11.2027 21.1665 11.2752 20.8221 11.6195C20.4777 11.9639 20.4047 12.4781 20.6036 12.8939Z" fill="#95D6A4"/>
<path d="M25.6959 17.6117C26.3138 17.6117 26.8147 17.1108 26.8147 16.493C26.8147 15.8751 26.3138 15.3742 25.6959 15.3742C25.078 15.3742 24.5771 15.8751 24.5771 16.493C24.5771 17.1108 25.078 17.6117 25.6959 17.6117Z" fill="#FFE07D"/>
<path d="M25.2125 17.5032C25.1009 17.4497 24.9967 17.3773 24.9041 17.2847C24.4671 16.8477 24.4677 16.1394 24.9046 15.7025C25.3416 15.2655 26.0494 15.2655 26.4863 15.7025C26.5789 15.795 26.6514 15.8992 26.7048 16.0109C26.289 15.812 25.7754 15.8845 25.431 16.2288C25.0866 16.5732 25.0136 17.0874 25.2125 17.5032Z" fill="#FFD064"/>
<path d="M29.4034 10.3016C30.0213 10.3016 30.5222 9.80066 30.5222 9.18279C30.5222 8.56491 30.0213 8.06403 29.4034 8.06403C28.7856 8.06403 28.2847 8.56491 28.2847 9.18279C28.2847 9.80066 28.7856 10.3016 29.4034 10.3016Z" fill="#B3E59F"/>
<path d="M28.9201 10.193C28.8084 10.1395 28.7042 10.0671 28.6116 9.97453C28.1747 9.53754 28.1752 8.82926 28.6121 8.39227C29.0491 7.95534 29.7569 7.95534 30.1938 8.39227C30.2864 8.48485 30.3589 8.58905 30.4124 8.70068C29.9966 8.50178 29.4829 8.57429 29.1385 8.91865C28.7941 9.263 28.7212 9.77719 28.9201 10.193Z" fill="#95D6A4"/>
<path d="M19.1944 7.27866C19.8123 7.27866 20.3132 6.77778 20.3132 6.1599C20.3132 5.54202 19.8123 5.04114 19.1944 5.04114C18.5766 5.04114 18.0757 5.54202 18.0757 6.1599C18.0757 6.77778 18.5766 7.27866 19.1944 7.27866Z" fill="#B3E59F"/>
<path d="M18.7111 7.16907C18.5994 7.11562 18.4952 7.04318 18.4026 6.9506C17.9657 6.51367 17.9662 5.80534 18.4031 5.36835C18.8401 4.93142 19.5479 4.93142 19.9848 5.36835C20.0774 5.46092 20.1499 5.56512 20.2034 5.67676C19.7876 5.47786 19.2739 5.55037 18.9295 5.89472C18.5851 6.23914 18.5121 6.75333 18.7111 7.16907Z" fill="#95D6A4"/>
<path d="M31.5358 12.2352C31.3125 12.012 31.0293 11.8631 30.7264 11.8019C30.7305 11.271 30.6948 10.7372 30.6187 10.2038C31.1428 9.58071 31.1122 8.64653 30.526 8.06027C30.3567 7.89094 30.1558 7.76461 29.9366 7.68666C29.6048 6.87494 29.1773 6.11553 28.6592 5.41501C28.6649 5.40951 28.6711 5.40476 28.6767 5.3992C28.9765 5.09935 29.1416 4.70067 29.1416 4.27668C29.1416 3.85269 28.9764 3.45402 28.6767 3.15417C28.0577 2.53522 27.0505 2.53522 26.4315 3.15417C26.4258 3.15986 26.4211 3.16611 26.4155 3.1718C25.25 2.31044 23.9223 1.69986 22.5009 1.37514C22.4339 1.10385 22.2948 0.846822 22.0832 0.635234C21.4641 0.0162827 20.457 0.0162827 19.838 0.635234C19.6929 0.780377 19.5822 0.947022 19.5051 1.12486C18.6646 1.17374 17.8416 1.32076 17.0502 1.56016C16.9734 1.33032 16.8441 1.11836 16.6671 0.941334C16.048 0.322195 15.0405 0.322195 14.4214 0.941334C14.1215 1.24118 13.9564 1.63986 13.9564 2.06385C13.9564 2.36988 14.0428 2.66242 14.2034 2.91439C13.6452 3.29169 13.1196 3.72449 12.6343 4.20986C10.633 6.21117 9.53086 8.87218 9.53086 11.7028C9.53086 13.7593 10.1131 15.726 11.1988 17.4155L3.65064 24.9637C3.46755 25.1467 3.46755 25.4436 3.65064 25.6266C3.74221 25.7181 3.86223 25.764 3.98218 25.764C4.10213 25.764 4.22214 25.7182 4.31372 25.6266L11.7482 18.1921C12.0203 18.542 12.3158 18.8774 12.6342 19.1958C12.9527 19.5143 13.2881 19.8098 13.638 20.0819L3.2194 30.5012C2.69833 31.0222 1.85035 31.0221 1.32891 30.5012C1.07669 30.2489 0.937678 29.9135 0.937615 29.5565C0.937615 29.1994 1.07657 28.8638 1.32898 28.6114L3.04412 26.8962C3.22721 26.7131 3.22721 26.4163 3.04406 26.2333C2.86104 26.0501 2.56419 26.0502 2.38111 26.2333L0.666019 27.9485C0.236404 28.3779 -6.24953e-05 28.949 1.23893e-08 29.5566C0.000125028 30.164 0.236592 30.7349 0.666082 31.1644C1.10957 31.6075 1.69196 31.8291 2.27434 31.8291C2.85673 31.8291 3.43917 31.6074 3.88242 31.1642L14.4145 20.6315C16.1042 21.7175 18.0711 22.2998 20.1276 22.2998C22.9581 22.2998 25.6193 21.1975 27.6208 19.196C27.9789 18.8379 28.3132 18.4525 28.6146 18.0505C28.7699 17.8434 28.7278 17.5494 28.5206 17.3942C28.3135 17.2389 28.0196 17.281 27.8644 17.4881C27.5896 17.8547 27.2846 18.2063 26.9578 18.5329C25.1333 20.3574 22.7077 21.3622 20.1275 21.3622C17.5474 21.3622 15.1217 20.3574 13.2973 18.5329C11.473 16.7087 10.4684 14.2831 10.4684 11.7029C10.4684 9.12272 11.473 6.6971 13.2973 4.87288C14.9437 3.22643 17.0977 2.24149 19.4048 2.07047C19.464 2.36745 19.6082 2.65067 19.8379 2.88039C20.1378 3.18023 20.5365 3.34538 20.9606 3.34538C21.3846 3.34538 21.7833 3.18023 22.0832 2.88039C22.2459 2.71762 22.3655 2.52778 22.4426 2.32544C24.1499 2.74449 25.7034 3.61835 26.9578 4.87288C27.7786 5.69367 28.4326 6.63397 28.9089 7.67385C28.6747 7.7503 28.4599 7.881 28.2807 8.06027C27.6618 8.67929 27.6618 9.68641 28.2807 10.3054C28.5902 10.6149 28.9968 10.7697 29.4033 10.7697C29.5155 10.7697 29.6276 10.7574 29.7378 10.7339C29.9148 12.5245 29.588 14.3614 28.797 15.9682C28.6827 16.2005 28.7784 16.4816 29.0107 16.5959C29.0772 16.6286 29.1478 16.6441 29.2173 16.6441C29.3904 16.6441 29.5568 16.5479 29.6383 16.3823C29.8701 15.9113 30.0649 15.4277 30.2232 14.9348C30.2868 14.9426 30.3505 14.9466 30.4142 14.9466C30.8249 14.9466 31.2297 14.7862 31.5357 14.4802C32.1547 13.8613 32.1547 12.8542 31.5358 12.2352ZM14.894 2.06385C14.894 1.89033 14.9615 1.72712 15.0844 1.60429C15.3379 1.3507 15.7506 1.3507 16.004 1.60429C16.0799 1.68011 16.1337 1.77194 16.1644 1.87126C15.7666 2.03153 15.379 2.21643 15.003 2.42452C14.9321 2.31863 14.894 2.19418 14.894 2.06385ZM21.4202 2.21737C21.2974 2.34013 21.1343 2.4077 20.9606 2.4077C20.787 2.4077 20.6238 2.34007 20.501 2.21737C20.2476 1.96396 20.2476 1.5516 20.501 1.29819C20.6277 1.17149 20.7941 1.1081 20.9606 1.1081C21.127 1.1081 21.2935 1.17149 21.4202 1.29819C21.6736 1.55166 21.6736 1.96396 21.4202 2.21737ZM27.1496 3.76831C27.4044 3.56522 27.7778 3.58116 28.0137 3.81706C28.1365 3.93983 28.2041 4.10304 28.2041 4.27656C28.2041 4.42501 28.1543 4.56566 28.0631 4.68017C27.9208 4.51984 27.7738 4.36269 27.6209 4.20986C27.4681 4.05709 27.3102 3.91076 27.1496 3.76831ZM28.9438 9.6424C28.6904 9.389 28.6904 8.97663 28.9438 8.72323C29.0666 8.60046 29.2297 8.53289 29.4034 8.53289C29.577 8.53289 29.7402 8.60053 29.863 8.72323C30.1165 8.97663 30.1165 9.389 29.863 9.6424C29.6095 9.89581 29.1972 9.89581 28.9438 9.6424ZM30.8728 13.8172C30.7628 13.9272 30.6218 13.9909 30.4756 14.0051C30.5668 13.5953 30.6332 13.1806 30.6747 12.7627C30.7471 12.7947 30.8144 12.8398 30.8727 12.8982C31.1261 13.1516 31.1261 13.5639 30.8728 13.8172Z" fill="black"/>
<path d="M23.934 7.45924C24.3404 7.45924 24.7471 7.30447 25.0565 6.99506H25.0566C25.6755 6.37604 25.6755 5.36886 25.0565 4.74991C24.7567 4.45006 24.358 4.28497 23.934 4.28497C23.5099 4.28497 23.1112 4.45012 22.8114 4.74997C22.1924 5.36892 22.1924 6.37611 22.8114 6.99512C23.121 7.30453 23.5274 7.45924 23.934 7.45924ZM23.4745 5.41286C23.5972 5.2901 23.7604 5.22253 23.934 5.22253C24.1077 5.22253 24.2709 5.29016 24.3936 5.41286C24.6471 5.66627 24.6471 6.07863 24.3937 6.33204C24.1403 6.58544 23.7279 6.58551 23.4745 6.33204C23.221 6.07863 23.221 5.66627 23.4745 5.41286Z" fill="black"/>
<path d="M25.5029 13.6041C25.9093 13.6041 26.3159 13.4493 26.6254 13.1398C27.2444 12.5208 27.2444 11.5136 26.6254 10.8947C26.3256 10.5948 25.9269 10.4297 25.5028 10.4297C25.0787 10.4297 24.6801 10.5948 24.3802 10.8947C23.7613 11.5136 23.7613 12.5208 24.3802 13.1398C24.6898 13.4492 25.0963 13.6041 25.5029 13.6041ZM25.0433 11.5576C25.1661 11.4349 25.3292 11.3673 25.5029 11.3673C25.6765 11.3673 25.8397 11.4349 25.9625 11.5576C26.2159 11.811 26.2159 12.2234 25.9625 12.4768C25.709 12.7302 25.2967 12.7302 25.0434 12.4768C24.7898 12.2234 24.7898 11.811 25.0433 11.5576Z" fill="black"/>
<path d="M13.9212 5.49626C13.3023 6.11528 13.3023 7.1224 13.9213 7.74141C14.2211 8.04126 14.6198 8.20634 15.0438 8.20634C15.4679 8.20634 15.8666 8.0412 16.1664 7.74135C16.7853 7.12234 16.7853 6.11521 16.1664 5.4962C15.5474 4.87731 14.5403 4.87731 13.9212 5.49626ZM15.5033 7.07845C15.3806 7.20122 15.2174 7.26879 15.0438 7.26879C14.8701 7.26879 14.7069 7.20116 14.5841 7.07845C14.3307 6.82505 14.3307 6.41269 14.5841 6.15928C14.7108 6.03258 14.8772 5.9692 15.0438 5.9692C15.2102 5.9692 15.3766 6.03252 15.5033 6.15922C15.7568 6.41269 15.7568 6.82499 15.5033 7.07845Z" fill="black"/>
<path d="M21.0868 13.4711C21.4933 13.4711 21.8999 13.3164 22.2094 13.0069C22.8284 12.3879 22.8284 11.3807 22.2094 10.7617C21.9096 10.4619 21.5109 10.2968 21.0868 10.2968C20.6627 10.2968 20.2641 10.4619 19.9642 10.7617C19.3453 11.3807 19.3453 12.3879 19.9642 13.0069C20.2737 13.3164 20.6803 13.4711 21.0868 13.4711ZM20.6272 11.4247C20.75 11.3019 20.9131 11.2344 21.0868 11.2344C21.2604 11.2344 21.4236 11.302 21.5464 11.4247C21.7999 11.6781 21.7999 12.0905 21.5464 12.3439C21.293 12.5973 20.8807 12.5973 20.6273 12.3439C20.3738 12.0905 20.3738 11.6782 20.6272 11.4247Z" fill="black"/>
<path d="M25.696 18.0805C26.12 18.0805 26.5186 17.9154 26.8185 17.6156C27.1184 17.3158 27.2835 16.9171 27.2835 16.493C27.2835 16.069 27.1183 15.6703 26.8185 15.3704C26.5188 15.0706 26.12 14.9055 25.696 14.9055C25.2719 14.9055 24.8732 15.0707 24.5735 15.3704C24.2735 15.6703 24.1084 16.069 24.1084 16.493C24.1084 16.9171 24.2736 17.3158 24.5734 17.6156C24.8732 17.9154 25.2719 18.0805 25.696 18.0805ZM25.2364 16.0334C25.3631 15.9067 25.5294 15.8433 25.696 15.8433C25.8624 15.8433 26.0288 15.9067 26.1556 16.0334C26.2783 16.1562 26.346 16.3194 26.346 16.493C26.346 16.6665 26.2783 16.8298 26.1556 16.9525H26.1555C26.0328 17.0753 25.8696 17.1429 25.696 17.1429C25.5223 17.1429 25.3592 17.0752 25.2363 16.9525C25.1136 16.8297 25.046 16.6665 25.046 16.4929C25.046 16.3193 25.1136 16.1562 25.2364 16.0334Z" fill="black"/>
<path d="M20.3164 5.03685C19.6973 4.41789 18.6901 4.41789 18.0711 5.03685C17.4522 5.65586 17.4522 6.66305 18.0711 7.282C18.371 7.58185 18.7697 7.74699 19.1937 7.74699C19.6178 7.74699 20.0165 7.58185 20.3164 7.282C20.9354 6.66305 20.9354 5.65586 20.3164 5.03685ZM19.6533 6.61898C19.5306 6.74174 19.3674 6.80931 19.1937 6.80931C19.0201 6.80931 18.8569 6.74168 18.7342 6.61898C18.4807 6.36557 18.4807 5.95321 18.7342 5.6998C18.8609 5.5731 19.0273 5.50972 19.1938 5.50972C19.3602 5.50972 19.5266 5.5731 19.6533 5.6998C19.9068 5.95327 19.9068 6.36557 19.6533 6.61898Z" fill="black"/>
</g>
<defs>
<clipPath id="clip0">
<rect width="32" height="32" fill="white"/>
</clipPath>
</defs>
</svg>
