<svg width="64" height="64" viewBox="0 0 64 64" fill="none" xmlns="http://www.w3.org/2000/svg">
<path d="M60.4879 26.8701H3.48779V54.2139H60.4879V26.8701Z" fill="#FDCA74"/>
<path d="M60.4874 29.42H3.5498V33.1065H60.4874V29.42Z" fill="#E6A537"/>
<path d="M60.4874 43.0713H3.5498V46.7578H60.4874V43.0713Z" fill="#E6A537"/>
<path d="M43.6465 8.03977C41.3411 7.38702 38.8771 7.59915 36.7107 8.62265C36.7107 8.62265 4.64703 23.6096 2.49503 24.5198C1.56003 24.9153 0.909901 25.8526 0.938401 26.9381C0.974901 28.3301 2.1574 29.4198 3.54991 29.4198H56.6051C57.691 29.4198 58.5704 30.3001 58.5704 31.3859V36.0251C58.5704 37.111 57.6901 37.9912 56.6043 37.9912H3.48778C2.07928 37.9912 0.937526 39.133 0.937526 40.5415C0.937526 41.95 2.07928 43.0917 3.48778 43.0917H56.6044C57.6903 43.0917 58.5705 43.972 58.5705 45.0578V49.6967C58.5705 50.7826 57.6903 51.6629 56.6044 51.6629H3.48778C2.07928 51.6629 0.937526 52.8046 0.937526 54.2131C0.937526 55.6216 2.07928 56.7634 3.48778 56.7634H59.3046C61.3801 56.7634 63.0627 55.0809 63.0627 53.0054V29.4201C63.0627 15.3539 50.2609 9.91253 43.6465 8.03977Z" fill="#A8503C"/>
<path d="M43.6465 8.03976C42.3552 7.67414 41.0142 7.58026 39.7036 7.74789C40.1886 7.80939 40.671 7.90514 41.1465 8.03976C47.7609 9.91252 60.5627 15.3539 60.5627 29.4201V53.0055C60.5627 55.081 58.8802 56.7635 56.8047 56.7635H59.3047C61.3802 56.7635 63.0627 55.081 63.0627 53.0055V29.4201C63.0627 15.3539 50.2609 9.91252 43.6465 8.03976Z" fill="#993E29"/>
<path d="M35.4616 22.7983C38.0605 22.7983 40.1674 20.6915 40.1674 18.0925C40.1674 15.4936 38.0605 13.3868 35.4616 13.3868C32.8627 13.3868 30.7559 15.4936 30.7559 18.0925C30.7559 20.6915 32.8627 22.7983 35.4616 22.7983Z" fill="#F9545B"/>
<path d="M0 54.2131C0 56.1363 1.56463 57.7009 3.48776 57.7009H59.3045C61.8936 57.7009 64 55.5944 64 53.0054V29.4199C64 25.6773 63.1176 22.2467 61.3774 19.2234C61.1191 18.7747 60.5459 18.6202 60.0971 18.8787C59.6484 19.1369 59.494 19.7102 59.7524 20.1589C61.3269 22.8939 62.1251 26.0098 62.1251 29.4199V53.0054C62.1251 54.5606 60.8597 55.8259 59.3046 55.8259H3.48776C2.59851 55.8259 1.875 55.1024 1.875 54.2131C1.875 53.3239 2.59851 52.6005 3.48776 52.6005H10.6975C11.2153 52.6005 11.635 52.1807 11.635 51.663C11.635 51.1452 11.2153 50.7255 10.6975 50.7255H4.42526V44.0292H56.6044C57.1715 44.0292 57.633 44.4906 57.633 45.0579V49.6967C57.633 50.264 57.1716 50.7254 56.6044 50.7254H14.4475C13.9298 50.7254 13.51 51.1451 13.51 51.6629C13.51 52.1806 13.9298 52.6004 14.4475 52.6004H56.6044C58.2054 52.6004 59.508 51.2977 59.508 49.6967V45.0579C59.508 43.4567 58.2055 42.1542 56.6044 42.1542H3.48776C2.59851 42.1542 1.875 41.4307 1.875 40.5415C1.875 39.6522 2.59851 38.9287 3.48776 38.9287H56.6044C58.2054 38.9287 59.508 37.6262 59.508 36.0251V31.3862C59.508 29.7851 58.2059 28.4826 56.6052 28.4826H3.57038C3.55013 28.4813 3.53001 28.4802 3.50963 28.4798C3.50588 28.4797 3.50226 28.4802 3.49851 28.4801C2.62113 28.4537 1.89788 27.7622 1.87575 26.9137C1.85813 26.2444 2.24475 25.6438 2.86038 25.3834C4.61326 24.6419 25.5296 14.8804 33.8098 11.0129C34.0397 11.4778 34.2282 11.9912 34.3723 12.5557C31.7803 13.0648 29.8186 15.3534 29.8186 18.0923C29.8186 21.2041 32.3501 23.7356 35.4618 23.7356C38.5736 23.7356 41.1051 21.2041 41.1051 18.0923C41.1051 15.2612 39.0093 12.911 36.2878 12.51C36.1058 11.6709 35.8467 10.9052 35.5119 10.2177C36.3912 9.80678 36.9563 9.54278 37.1112 9.47028C39.0798 8.54028 41.31 8.35253 43.3912 8.94166C47.6432 10.1455 53.5676 12.5589 57.6451 17.2193C57.9861 17.6089 58.5782 17.6486 58.968 17.3075C59.3577 16.9665 59.3972 16.3743 59.0562 15.9847C54.6764 10.9788 48.3978 8.41066 43.902 7.13778C41.3847 6.42503 38.6886 6.65153 36.3138 7.7734C36.2688 7.7944 35.6042 8.10503 34.4891 8.62603C33.5849 7.54328 32.4029 6.7709 30.9638 6.33903C30.4678 6.19015 29.9453 6.47153 29.7964 6.96753C29.6477 7.4634 29.9291 7.98615 30.4249 8.1349C31.3243 8.40478 32.0833 8.84916 32.7037 9.45991C24.2589 13.4038 3.81013 22.9458 2.13 23.6564C0.799002 24.2193 -0.0365001 25.5172 0.001375 26.9627C0.0415001 28.4951 1.11563 29.7928 2.55038 30.2136V37.1827C1.08113 37.5933 0 38.9431 0 40.5415C0 42.1398 1.08113 43.4895 2.55026 43.9002V50.8545C1.08113 51.2651 0 52.6149 0 54.2131ZM39.2301 18.0923C39.2301 20.1702 37.5397 21.8606 35.4618 21.8606C33.3839 21.8606 31.6936 20.1702 31.6936 18.0923C31.6936 16.0293 33.3602 14.349 35.4176 14.3252C35.4442 14.3274 35.4709 14.3288 35.4979 14.3288C35.5103 14.3288 35.5228 14.3264 35.5353 14.3259C37.5792 14.3653 39.2301 16.039 39.2301 18.0923ZM56.6052 30.3574C57.1365 30.3574 57.5749 30.7631 57.6276 31.2811C57.6311 31.3156 57.6329 31.3507 57.6329 31.3861V36.0251C57.6329 36.5923 57.1715 37.0537 56.6042 37.0537H4.42526V30.3576H56.6052V30.3574Z" fill="black"/>
</svg>
