<svg width="32" height="32" viewBox="0 0 32 32" fill="none" xmlns="http://www.w3.org/2000/svg">
<path d="M25.2071 8.97386C22.5579 6.32458 19.1164 4.99583 17.2782 4.43461C16.5081 4.19949 15.6744 4.40491 15.105 4.97434L3.51221 16.5671H26.2919C27.49 16.5671 28.4614 17.5384 28.4614 18.7366C28.4614 18.7366 29.0037 12.7705 25.2071 8.97386Z" fill="#884D00"/>
<path d="M15.9867 14.6441C17.7839 14.6441 19.2409 13.1871 19.2409 11.3899C19.2409 9.59259 17.7839 8.13562 15.9867 8.13562C14.1894 8.13562 12.7324 9.59259 12.7324 11.3899C12.7324 13.1871 14.1894 14.6441 15.9867 14.6441Z" fill="#FF0000"/>
<path d="M16.5289 10.3051H15.4442C15.4442 4.5318 12.4029 1.08475 7.30859 1.08475V0C12.9961 0 16.5289 3.94861 16.5289 10.3051Z" fill="#A6001E"/>
<path d="M15.9869 13.5593C14.3952 13.5593 13.8174 12.2616 13.8174 11.3898H14.9021H14.3598L14.9021 11.3855C14.9064 11.6413 14.9964 12.4745 15.9869 12.4745V13.5593Z" fill="white"/>
<path d="M28.4614 26.5763H3.51221V29.8305H28.4614V26.5763Z" fill="#CF9E76"/>
<path d="M11.6478 18.7366H8.39356V20.3637C8.39356 20.9627 7.90787 21.4484 7.30882 21.4484C6.70977 21.4484 6.22407 20.9627 6.22407 20.3637V18.7366H3.51221V23.0756H11.6478V18.7366Z" fill="#CF9E76"/>
<path d="M3.51221 32.0001H26.2919C27.49 32.0001 28.4614 31.0287 28.4614 29.8306H3.51221V32.0001Z" fill="#884D00"/>
<path d="M13.8173 24.1603C13.8173 24.7594 13.3316 25.2451 12.7325 25.2451C12.1335 25.2451 11.6478 24.7594 11.6478 24.1603V23.0756H3.51221V26.5763H28.4614V23.0756H13.8173V24.1603Z" fill="#D4C8B8"/>
<path d="M26.2919 16.567H3.51221V18.7365H6.22407V20.3636C6.22407 20.9627 6.70977 21.4484 7.30882 21.4484C7.90787 21.4484 8.39356 20.9627 8.39356 20.3636V18.7365H11.6478V23.0755V24.1602C11.6478 24.7593 12.1335 25.245 12.7325 25.245C13.3316 25.245 13.8173 24.7593 13.8173 24.1602V23.0755V20.906H14.902C15.5011 20.906 15.9868 20.4203 15.9868 19.8213V18.7365H21.9529V19.8213C21.9529 20.5701 22.5599 21.1772 23.3088 21.1772C24.0577 21.1772 24.6647 20.5701 24.6647 19.8213V18.7365H28.4614C28.4614 17.5383 27.4901 16.567 26.2919 16.567Z" fill="#693B00"/>
<path d="M24.6648 19.8213C24.6648 20.5701 24.0578 21.1773 23.3089 21.1773C22.56 21.1773 21.953 20.5701 21.953 19.8213V18.7366H15.9869V19.8213C15.9869 20.4204 15.5012 20.9061 14.9021 20.9061H13.8174V23.0756H28.4615V18.7366H24.6648V19.8213Z" fill="#CF9E76"/>
<path d="M24.6723 14.1908C24.1797 11.2358 21.6977 9.69978 21.6729 9.68493L22.2322 8.75537C22.3514 8.8269 25.1655 10.5509 25.7422 14.0128L24.6723 14.1908Z" fill="white"/>
<path d="M20.0838 8.61815L20.5688 7.64795L19.4842 7.10561L18.9991 8.07581L20.0838 8.61815Z" fill="white"/>
</svg>
