<svg width="32" height="32" viewBox="0 0 32 32" fill="none" xmlns="http://www.w3.org/2000/svg">
<g clip-path="url(#clip0)">
<path d="M0.271484 14.6441H31.7291V28.7458C31.7291 30.5432 30.2723 32 28.4749 32H0.271484V14.6441Z" fill="#F0DBC2"/>
<path d="M0.271484 17.8983H26.8477C27.7464 17.8983 28.4749 18.6266 28.4749 19.5254V27.1186C28.4749 28.0173 27.7464 28.7458 26.8477 28.7458H0.271484V17.8983Z" fill="#F2B9B8"/>
<path d="M0.271484 17.8983H26.8477C27.7464 17.8983 28.4749 18.6266 28.4749 19.5254V27.1186C28.4749 28.0173 27.7464 28.7458 26.8477 28.7458H0.271484V17.8983Z" fill="#F2B9B8"/>
<path d="M0.271484 14.6441L19.2545 3.25427C25.712 3.25533 31.1108 8.1644 31.7242 14.5926L31.7291 14.6441H0.271484Z" fill="#F29C9B"/>
<path d="M25.2201 9.22035C27.0173 9.22035 28.4743 7.76338 28.4743 5.9661C28.4743 4.16883 27.0173 2.71185 25.2201 2.71185C23.4228 2.71185 21.9658 4.16883 21.9658 5.9661C21.9658 7.76338 23.4228 9.22035 25.2201 9.22035Z" fill="#F0614A"/>
<path d="M26.8398 3.14575C26.7617 5.56475 24.8189 7.5075 22.3999 7.58563C23.2916 9.14606 25.2793 9.68838 26.8398 8.79731C28.4002 7.90563 28.9425 5.91788 28.0515 4.35744C27.7629 3.8525 27.3447 3.43431 26.8398 3.14575Z" fill="#EA5242"/>
<path d="M25.7625 4.88137H24.6777C24.681 2.18687 26.8646 0.00325 29.5591 0V1.08475C27.4634 1.08694 25.7647 2.78562 25.7625 4.88137Z" fill="#965735"/>
<path d="M19.9551 7.43457L20.7222 6.66754L19.0949 5.04033L18.3279 5.80735L19.9551 7.43457Z" fill="#965735"/>
<path d="M13.1301 10.6883L14.7573 9.0611L13.9903 8.29407L12.3631 9.92128L13.1301 10.6883Z" fill="#965735"/>
<path d="M16.1588 12.8588L16.9258 12.0917L15.2986 10.4645L14.5315 11.2315L16.1588 12.8588Z" fill="#965735"/>
<path d="M18.0105 10.69L19.6377 9.06274L18.8707 8.29572L17.2435 9.92293L18.0105 10.69Z" fill="#965735"/>
<path d="M27.2302 12.8578L28.8574 11.2306L28.0904 10.4636L26.4632 12.0908L27.2302 12.8578Z" fill="#965735"/>
<path d="M21.2649 12.8583L22.8921 11.2311L22.1251 10.4641L20.4978 12.0913L21.2649 12.8583Z" fill="#965735"/>
<path d="M9.33226 12.8606L10.9595 11.2334L10.1924 10.4664L8.56523 12.0936L9.33226 12.8606Z" fill="#965735"/>
<path d="M20.1675 17.8984H26.8474C27.746 17.8984 28.4745 18.6267 28.4745 19.5255V27.1187C28.4745 28.0174 27.746 28.7459 26.8474 28.7459H7.60723L3.83936 32H28.4745C30.2719 32 31.7287 30.5432 31.7287 28.7458V14.6441H23.9359L20.1675 17.8984Z" fill="#EBD3B7"/>
<path d="M26.8475 28.7457C27.7462 28.7457 28.4747 28.0173 28.4747 27.1186V19.5254C28.4747 18.6267 27.7462 17.8983 26.8475 17.8983H20.1677L7.60742 28.7457H26.8475Z" fill="#F2AEAC"/>
<path d="M28.4749 22.7797H0.271484V23.8645H28.4749V22.7797Z" fill="#F28685"/>
</g>
<defs>
<clipPath id="clip0">
<rect width="32" height="32" fill="white"/>
</clipPath>
</defs>
</svg>
