<svg width="64" height="64" viewBox="0 0 64 64" fill="none" xmlns="http://www.w3.org/2000/svg">
<g clip-path="url(#clip0)">
<path d="M54.5498 20.5983H41.335V44.5496H62.9865V33.7692L60.4614 25.0419C59.7002 22.4101 57.2896 20.5983 54.5498 20.5983Z" fill="#FF7058"/>
<path d="M59.8255 33.6585L57.575 25.8792C57.1871 24.5419 55.9432 23.606 54.5499 23.606H44.3428V33.6585H59.8255Z" fill="#84DBFF"/>
<path d="M59.8286 33.6546H44.3379V23.602L59.8286 33.6546Z" fill="#CDD6E0"/>
<path d="M59.8255 33.6585L57.575 25.8792C57.1871 24.5419 55.9432 23.606 54.5499 23.606H44.3428L59.8255 33.6585Z" fill="#F2F2F2"/>
<path d="M3.99966 8.57391H37.3355C39.5433 8.57391 41.3352 10.3644 41.3352 12.5736V44.5483H0V12.5736C0 10.3645 1.79047 8.57391 3.99966 8.57391Z" fill="#FFD15C"/>
<path d="M27.0912 8.58066V19.149L25.5446 17.6025L23.9235 19.2238L22.3036 17.6025L20.6838 19.2238L19.0612 17.6025L17.4201 19.2238L15.8014 17.6025L14.2363 19.1678V8.58066H27.0912Z" fill="#F2F2F2"/>
<path d="M64 44.5469V49.0665H0.00537109V44.5469H6.68481C8.24468 41.7471 11.2444 39.8539 14.6841 39.8539C18.1105 39.8539 21.1102 41.7471 22.6835 44.5469H44.175C45.7349 41.7471 48.72 39.8539 52.1597 39.8539C55.5994 39.8539 58.5858 41.7471 60.1591 44.5469H64Z" fill="#334A5E"/>
<path d="M58.5472 49.0385C58.5472 52.5662 55.6874 55.426 52.1597 55.426C48.632 55.426 45.7749 52.5662 45.7749 49.0385C45.7749 45.5108 48.6333 42.651 52.1597 42.651C55.6888 42.651 58.5472 45.5108 58.5472 49.0385Z" fill="#40596B"/>
<path d="M54.7272 49.0385C54.7272 50.4557 53.5779 51.6036 52.162 51.6036C50.7448 51.6036 49.5942 50.4557 49.5942 49.0385C49.5942 47.6212 50.7435 46.4733 52.162 46.4733C53.5779 46.4721 54.7272 47.6214 54.7272 49.0385Z" fill="#ACB3BA"/>
<path d="M21.0664 49.0385C21.0664 52.5662 18.2053 55.426 14.679 55.426C11.1513 55.426 8.2915 52.5662 8.2915 49.0385C8.2915 45.5108 11.1513 42.651 14.679 42.651C18.2053 42.651 21.0664 45.5108 21.0664 49.0385Z" fill="#40596B"/>
<path d="M17.2439 49.0385C17.2439 50.4557 16.096 51.6036 14.6787 51.6036C13.2615 51.6036 12.1123 50.4557 12.1123 49.0385C12.1123 47.6212 13.2616 46.4733 14.6787 46.4733C16.0958 46.4733 17.2439 47.6214 17.2439 49.0385Z" fill="#ACB3BA"/>
</g>
<defs>
<clipPath id="clip0">
<rect width="64" height="64" fill="white"/>
</clipPath>
</defs>
</svg>
