<svg width="64" height="64" viewBox="0 0 64 64" fill="none" xmlns="http://www.w3.org/2000/svg">
<path d="M63.196 10.0193L60.3504 9.45021C60.2798 9.26521 60.2033 9.08134 60.121 8.89921L61.7315 6.48347C61.9959 6.08685 61.9437 5.55873 61.6065 5.22173L58.778 2.39324C58.441 2.05612 57.9128 2.00387 57.5163 2.26824L55.1006 3.87873C54.9184 3.79649 54.7347 3.71986 54.5496 3.64936L53.9804 0.803747C53.8871 0.336499 53.4766 0 52.9999 0H49C48.5233 0 48.1128 0.336499 48.0193 0.803872L47.4502 3.64949C47.2652 3.72011 47.0813 3.79661 46.8992 3.87886L44.4835 2.26837C44.0871 2.00387 43.5589 2.05612 43.2217 2.39337L40.3934 5.22185C40.0562 5.55885 40.004 6.08698 40.2684 6.4836L41.8787 8.89934C41.7965 9.08146 41.7199 9.26521 41.6494 9.45034L38.8037 10.0195C38.3365 10.1128 38 10.5233 38 11V14.9999C38 15.4766 38.3365 15.8871 38.8039 15.9806L41.6495 16.5497C41.7201 16.7347 41.7966 16.9186 41.8789 17.1007L40.2685 19.5164C40.0041 19.913 40.0564 20.4412 40.3935 20.7782L43.2219 23.6065C43.5587 23.9435 44.087 23.9958 44.4836 23.7315L46.8993 22.1212C47.0815 22.2034 47.2652 22.28 47.4503 22.3505L48.0195 25.1962C48.113 25.6635 48.5233 26 49.0001 26H53.0001C53.4767 26 53.8872 25.6635 53.9807 25.1962L54.5498 22.3505C54.7348 22.2799 54.9187 22.2034 55.1008 22.1212L57.5165 23.7315C57.9129 23.996 58.4412 23.9438 58.7783 23.6065L61.6068 20.7782C61.9439 20.4412 61.9962 19.913 61.7318 19.5164L60.1213 17.1007C60.2035 16.9186 60.2802 16.7348 60.3507 16.5497L63.1963 15.9806C63.6637 15.8871 64.0001 15.4767 64.0001 14.9999V11C63.9999 10.5233 63.6634 10.1128 63.196 10.0193ZM54.9999 12.9999C54.9999 15.2056 53.2056 16.9999 50.9999 16.9999C48.7943 16.9999 47 15.2056 47 12.9999C47 10.7943 48.7943 8.99996 50.9999 8.99996C53.2056 8.99996 54.9999 10.7943 54.9999 12.9999Z" fill="#7B848F"/>
<path d="M51 6.99997C47.6862 6.99997 45 9.68621 45 12.9999C45 16.3137 47.6862 18.9999 51 18.9999C54.3137 18.9999 57 16.3137 57 12.9999C57 9.68621 54.3137 6.99997 51 6.99997ZM51 16.9999C48.7909 16.9999 47 15.2091 47 12.9999C47 10.7908 48.7909 8.99996 51 8.99996C53.2091 8.99996 55 10.7908 55 12.9999C55 15.2091 53.2091 16.9999 51 16.9999Z" fill="#68727E"/>
<path d="M63.196 48.0192L60.3504 47.4501C60.2798 47.2651 60.2033 47.0812 60.121 46.8991L61.7315 44.4833C61.9959 44.0867 61.9437 43.5586 61.6065 43.2216L58.778 40.3931C58.441 40.056 57.9128 40.0037 57.5163 40.2681L55.1006 41.8786C54.9184 41.7963 54.7347 41.7197 54.5496 41.6492L53.9804 38.8036C53.8871 38.3363 53.4766 37.9998 52.9999 37.9998H49C48.5233 37.9998 48.1128 38.3363 48.0193 38.8037L47.4502 41.6493C47.2652 41.72 47.0813 41.7965 46.8992 41.8787L44.4835 40.2682C44.0871 40.0037 43.5589 40.056 43.2217 40.3932L40.3934 43.2217C40.0562 43.5587 40.004 44.0868 40.2684 44.4834L41.8787 46.8992C41.7965 47.0813 41.7199 47.2651 41.6494 47.4502L38.8037 48.0193C38.3365 48.1127 38 48.5232 38 48.9998V52.9998C38 53.4764 38.3365 53.8869 38.8039 53.9804L41.6495 54.5495C41.7201 54.7345 41.7966 54.9184 41.8789 55.1005L40.2685 57.5163C40.0041 57.9129 40.0564 58.441 40.3935 58.778L43.2219 61.6064C43.5587 61.9434 44.087 61.9956 44.4836 61.7314L46.8993 60.121C47.0815 60.2033 47.2652 60.2799 47.4503 60.3504L48.0195 63.196C48.113 63.6634 48.5233 63.9999 49.0001 63.9999H53.0001C53.4767 63.9999 53.8872 63.6634 53.9807 63.196L54.5498 60.3504C54.7348 60.2798 54.9187 60.2033 55.1008 60.121L57.5165 61.7314C57.9129 61.9959 58.4412 61.9436 58.7783 61.6064L61.6068 58.778C61.9439 58.441 61.9962 57.9129 61.7318 57.5163L60.1213 55.1005C60.2035 54.9184 60.2802 54.7347 60.3507 54.5495L63.1963 53.9804C63.6637 53.8869 64.0001 53.4765 64.0001 52.9998V48.9998C63.9999 48.5232 63.6634 48.1127 63.196 48.0192ZM54.9999 50.9998C54.9999 53.2054 53.2056 54.9998 50.9999 54.9998C48.7943 54.9998 47 53.2054 47 50.9998C47 48.7942 48.7943 46.9998 50.9999 46.9998C53.2056 46.9998 54.9999 48.7942 54.9999 50.9998Z" fill="#C6CACF"/>
<path d="M51 44.9998C47.6862 44.9998 45 47.6861 45 50.9998C45 54.3135 47.6862 56.9998 51 56.9998C54.3137 56.9998 57 54.3135 57 50.9998C57 47.6861 54.3137 44.9998 51 44.9998ZM51 54.9998C48.7909 54.9998 47 53.2089 47 50.9998C47 48.7907 48.7909 46.9998 51 46.9998C53.2091 46.9998 55 48.7907 55 50.9998C55 53.2089 53.2091 54.9998 51 54.9998Z" fill="#B3B9BF"/>
<path d="M41.2423 27.6548L36.1171 26.3735C35.9132 25.7871 35.674 25.2105 35.402 24.6499L38.1207 20.1187C38.3568 19.7253 38.2948 19.2215 37.9704 18.8972L33.7277 14.6546C33.4034 14.3301 32.8996 14.2679 32.5062 14.5042L27.975 17.2229C27.4144 16.9509 26.8378 16.7117 26.2514 16.5078L24.9701 11.3826C24.8588 10.9373 24.4588 10.625 23.9999 10.625H17.9999C17.5411 10.625 17.1411 10.9373 17.0298 11.3825L15.7486 16.5077C15.1623 16.7116 14.5856 16.9508 14.0249 17.2228L9.49371 14.5041C9.10046 14.2679 8.59672 14.3298 8.27222 14.6544L4.02961 18.897C3.70511 19.2215 3.64311 19.7252 3.87923 20.1185L6.59797 24.6498C6.32597 25.2104 6.08673 25.7869 5.88285 26.3734L0.757497 27.6548C0.312374 27.766 0 28.166 0 28.6249V34.6249C0 35.0837 0.312374 35.4837 0.757497 35.595L5.88273 36.8762C6.0866 37.4626 6.32585 38.0392 6.59785 38.5998L3.87911 43.1311C3.64299 43.5244 3.70499 44.0282 4.02948 44.3526L8.27209 48.5952C8.59647 48.9197 9.10009 48.9816 9.49359 48.7456L14.0248 46.0268C14.5854 46.2988 15.1619 46.5381 15.7484 46.7419L17.0297 51.8672C17.1411 52.3123 17.5409 52.6247 17.9998 52.6247H23.9998C24.4587 52.6247 24.8587 52.3123 24.9699 51.8672L26.2511 46.7419C26.8375 46.5381 27.4141 46.2988 27.9748 46.0268L32.506 48.7456C32.8992 48.9817 33.403 48.9198 33.7275 48.5952L37.9701 44.3526C38.2946 44.0281 38.3566 43.5244 38.1205 43.1311L35.4017 38.5998C35.6737 38.0392 35.913 37.4627 36.1169 36.8762L41.2421 35.595C41.6872 35.4836 41.9996 35.0837 41.9996 34.6249V28.6249C41.9998 28.166 41.6875 27.766 41.2423 27.6548Z" fill="#FF8C78"/>
<path d="M20.9999 17.6249C13.2804 17.6249 7 23.9053 7 31.6249C7 39.3445 13.2804 45.6248 20.9999 45.6248C28.7195 45.6248 34.9999 39.3445 34.9999 31.6249C34.9999 23.9053 28.7195 17.6249 20.9999 17.6249Z" fill="#DB6B5E"/>
<path d="M21 19.6249C14.3831 19.6249 9 25.008 9 31.6249C9 38.2417 14.3831 43.6248 21 43.6248C27.6168 43.6248 32.9999 38.2417 32.9999 31.6249C32.9999 25.008 27.6168 19.6249 21 19.6249Z" fill="#D9DCDF"/>
<path d="M21 21.2499C15.2792 21.2499 10.625 25.9041 10.625 31.6249C10.625 37.3456 15.2792 41.9998 21 41.9998C26.7207 41.9998 31.3749 37.3456 31.3749 31.6249C31.3749 25.9041 26.7207 21.2499 21 21.2499Z" fill="#ECEDEF"/>
<path d="M21 24.6249C20.4477 24.6249 20 24.1772 20 23.6249V20.6249C20 20.0727 20.4477 19.6249 21 19.6249C21.5522 19.6249 22 20.0727 22 20.6249V23.6249C22 24.1772 21.5522 24.6249 21 24.6249Z" fill="#D9DCDF"/>
<path d="M21 43.6248C20.4477 43.6248 20 43.1771 20 42.6248V39.6248C20 39.0726 20.4477 38.6248 21 38.6248C21.5522 38.6248 22 39.0726 22 39.6248V42.6248C22 43.1771 21.5522 43.6248 21 43.6248Z" fill="#D9DCDF"/>
<path d="M32 32.6249H29C28.4477 32.6249 28 32.1771 28 31.6249C28 31.0726 28.4477 30.6249 29 30.6249H32C32.5522 30.6249 33 31.0726 33 31.6249C33 32.1771 32.5522 32.6249 32 32.6249Z" fill="#D9DCDF"/>
<path d="M13 32.6249H10C9.44775 32.6249 9 32.1771 9 31.6249C9 31.0726 9.44775 30.6249 10 30.6249H13C13.5522 30.6249 14 31.0726 14 31.6249C14 32.1771 13.5522 32.6249 13 32.6249Z" fill="#D9DCDF"/>
<path d="M20.9998 32.6249C20.7797 32.6249 20.5588 32.5525 20.3753 32.4057L15.3753 28.4058C14.9441 28.0608 14.8742 27.4315 15.2191 27.0001C15.5642 26.5689 16.1936 26.499 16.6247 26.8439L20.9258 30.2848L22.2929 28.9176C22.6834 28.5271 23.3165 28.5271 23.707 28.9176C24.0977 29.3081 24.0977 29.9413 23.707 30.3318L21.7071 32.3317C21.5131 32.5261 21.2569 32.6249 20.9998 32.6249Z" fill="#DB6B5E"/>
</svg>
