<svg width="96" height="96" viewBox="0 0 96 96" fill="none" xmlns="http://www.w3.org/2000/svg">
<path d="M27.6818 71.4131C26.8744 71.4131 26.22 70.6793 26.22 69.774C26.22 68.8687 26.8744 68.1349 27.6818 68.1349C28.4891 68.1349 29.1436 68.8687 29.1436 69.774C29.1436 70.6793 28.4891 71.4131 27.6818 71.4131Z" fill="black"/>
<path d="M60.1329 75.675C59.3256 75.675 58.6711 74.9411 58.6711 74.0359C58.6711 73.1306 59.3256 72.3967 60.1329 72.3967C60.9403 72.3967 61.5947 73.1306 61.5947 74.0359C61.5947 74.9411 60.9403 75.675 60.1329 75.675Z" fill="black"/>
<path d="M13.6902 67.4963C17.1253 67.6097 20.467 64.9452 21.5132 61.5784H13.9C13.0926 61.5784 12.4382 60.8446 12.4382 59.9393C12.4382 59.034 13.0926 58.3002 13.9 58.3002H21.9017C22.1432 55.3381 23.0479 52.6741 24.5596 50.456L19.6883 45.6914C19.0799 45.0964 19.0169 44.0608 19.5475 43.3788C20.0781 42.6966 21.0015 42.6259 21.6099 43.2209L26.5853 48.0873C28.275 46.4995 30.3895 45.2615 32.8148 44.4426L31.0434 36.977C30.8358 36.1022 31.2999 35.2043 32.0801 34.9716C32.8605 34.7388 33.661 35.2592 33.8686 36.134L35.6646 43.7028C37.7269 43.3103 39.8996 43.185 42.1253 43.3112L42.6736 35.2281C42.7349 34.3253 43.4387 33.6491 44.242 33.718C45.047 33.7866 45.65 34.5741 45.5887 35.4766L45.0368 43.6132C47.0833 43.9207 49.1507 44.4278 51.196 45.1207L53.4906 37.4379C53.747 36.5797 54.5753 36.117 55.341 36.4042C56.1065 36.6917 56.5193 37.6205 56.2629 38.479L53.964 46.1764C55.9102 47.0058 57.8165 48.0021 59.6434 49.1555L63.441 42.2424C63.8644 41.4717 64.7652 41.2315 65.4523 41.7064C66.1396 42.1811 66.3536 43.1908 65.9303 43.9616L62.137 50.8669C63.8339 52.1281 65.4689 53.5471 67.0801 55.2301L72.2254 49.5717C72.8017 48.9377 73.7272 48.9479 74.2925 49.5942C74.8578 50.2405 74.8489 51.2782 74.2725 51.912L69.138 57.5587C70.5769 59.3228 71.8561 61.2093 72.9712 63.2076L79.2174 59.2812C79.9217 58.8386 80.8126 59.1199 81.2074 59.9095C81.6022 60.6992 81.3514 61.6983 80.6471 62.1408L74.4157 66.0578C75.4068 68.2244 76.1819 70.4246 76.7736 72.6687L83.6764 70.7577C84.4599 70.541 85.2525 71.0773 85.4459 71.9562C85.6393 72.8351 85.1608 73.7235 84.377 73.9404L77.4824 75.8493C77.9033 78.1257 78.1525 80.4746 78.2303 82.887H85.569C86.3763 82.887 87.0308 83.6209 87.0308 84.5261C87.0308 85.4314 86.3763 86.1653 85.569 86.1653H68.6121V89.4435C68.6121 93.0588 65.989 96 62.7649 96H58.3795C57.5721 96 56.9177 95.2662 56.9177 94.3609V86.1653H41.4226V89.4435C41.4226 93.0588 38.7995 96 35.5754 96H31.19C30.3826 96 29.7282 95.2662 29.7282 94.3609V86.1653H26.7169C18.426 86.1653 11.8464 78.4696 12.1878 69.0681C12.2204 68.1711 12.8941 67.4711 13.6902 67.4963ZM26.7169 82.887H31.19C31.9974 82.887 32.6518 83.6209 32.6518 84.5261V92.7217H35.5754C37.1875 92.7217 38.499 91.2511 38.499 89.4435V84.5261C38.499 83.6209 39.1535 82.887 39.9608 82.887H58.3795C59.1868 82.887 59.8413 83.6209 59.8413 84.5261V92.7217H62.7649C64.377 92.7217 65.6885 91.2511 65.6885 89.4435V84.8464C65.1732 83.1857 64.466 81.6106 63.5847 80.1618C63.1297 79.4139 63.3017 78.3942 63.9685 77.8841C64.6355 77.374 65.5451 77.5666 65.9998 78.3145C66.8677 79.7414 67.5879 81.2744 68.1544 82.8869H75.3074C74.3786 55.7407 49.7489 43.4029 34.9291 47.2028C29.5405 48.5843 25.4475 52.1386 24.8395 58.3H31.6603C33.0322 55.4657 35.7232 53.6285 38.6453 53.6285C43.0301 53.6285 46.5975 57.6286 46.5975 62.5454C46.5975 64.5747 45.9934 66.4906 44.9156 68.0261C45.2882 68.0985 45.669 68.1349 46.0567 68.1349H48.8195C50.8129 68.1349 52.7915 68.4554 54.7001 69.0873C55.4744 69.3436 55.9168 70.2553 55.6882 71.1235C55.4595 71.9918 54.6462 72.4876 53.8722 72.2314C52.2325 71.6884 50.5325 71.4132 48.8195 71.4132H46.0567C44.4202 71.4132 42.8682 70.9632 41.4437 70.076C40.4761 69.4733 40.4346 67.9245 41.3707 67.2588C42.8128 66.2332 43.6738 64.4713 43.6738 62.5455C43.6738 59.4364 41.4179 56.9069 38.6452 56.9069C36.5789 56.9069 34.6957 58.3605 33.9589 60.524C33.7427 61.159 33.1994 61.5784 32.5933 61.5784H24.553C23.5929 66.2601 19.6257 70.0935 15.1267 70.6956C15.5328 77.4064 20.4294 82.887 26.7169 82.887Z" fill="black"/>
<path d="M19.9959 42.0947C19.0598 41.6335 17.2824 39.3316 17.8882 37.6803C18.6303 35.6578 19.8464 32.6953 19.4249 31.3418C19.3238 31.0707 19.3003 31.007 19.3969 31.2606C19.4069 31.287 19.4162 31.314 19.4249 31.3418C19.8472 32.4741 21.6249 37.2241 21.6823 37.5846C21.7325 37.9006 22.3333 38.2043 19.9959 42.0947Z" fill="black" stroke="black"/>
<path d="M32.0801 34.2102C31.1643 33.7005 29.4846 31.3081 30.1585 29.6904C30.9839 27.7089 32.3219 24.8132 31.9572 23.4391C31.8674 23.163 31.8467 23.0982 31.9326 23.3565C31.9415 23.3834 31.9497 23.411 31.9572 23.4391C32.3319 24.5923 33.9101 29.4301 33.9524 29.7932C33.9894 30.1114 34.5769 30.4462 32.0801 34.2102Z" fill="black" stroke="black"/>
<path d="M44.6568 33.0573C43.7384 32.5536 42.0462 30.1723 42.7116 28.5502C43.5267 26.5633 44.8496 23.6589 44.4777 22.2872C44.3865 22.0117 44.3655 21.947 44.4527 22.2048C44.4617 22.2316 44.4701 22.2591 44.4777 22.2872C44.8585 23.4379 46.4618 28.2653 46.506 28.6281C46.5447 28.9461 47.134 29.277 44.6568 33.0573Z" fill="black" stroke="black"/>
<path d="M55.6222 35.68C54.7037 35.1763 53.0115 32.795 53.6769 31.1729C54.492 29.186 55.8149 26.2816 55.443 24.9099C55.3519 24.6344 55.3308 24.5696 55.418 24.8275C55.4271 24.8543 55.4354 24.8818 55.443 24.9099C55.8238 26.0606 57.4271 30.888 57.4713 31.2508C57.51 31.5688 58.0993 31.8997 55.6222 35.68Z" fill="black" stroke="black"/>
<path d="M66.3856 41.4604C65.5111 40.8664 64.0163 38.3245 64.8088 36.7758C65.7795 34.8789 67.3295 32.1192 67.0688 30.7157C67.0001 30.4321 66.9843 30.3655 67.0505 30.6311C67.0574 30.6587 67.0635 30.6869 67.0688 30.7157C67.356 31.9 68.5667 36.8692 68.5817 37.235C68.5948 37.5556 69.1552 37.9444 66.3856 41.4604Z" fill="black" stroke="black"/>
<path d="M74.6688 49.0856C73.7903 48.499 72.2785 45.9698 73.0605 44.4145C74.0185 42.5094 75.5499 39.7367 75.2798 38.3354C75.2092 38.0524 75.1929 37.986 75.2609 38.251C75.268 38.2785 75.2743 38.3067 75.2798 38.3354C75.5749 39.5173 76.8189 44.4761 76.8364 44.8418C76.8517 45.1622 77.4146 45.5464 74.6688 49.0856Z" fill="black" stroke="black"/>
<path d="M81.6865 59.7174C80.8244 59.1011 79.3819 56.5215 80.2058 54.9936C81.215 53.1221 82.8208 50.4029 82.5889 48.9931C82.5259 48.7078 82.5115 48.6408 82.5723 48.908C82.5786 48.9358 82.5841 48.9642 82.5889 48.9931C82.8518 50.1845 83.9607 55.1834 83.9683 55.5495C83.9748 55.8703 84.5271 56.2734 81.6865 59.7174Z" fill="black" stroke="black"/>
<path d="M86.0353 71.5548C85.1453 70.9905 83.5831 68.5 84.3338 66.9254C85.2533 64.9966 86.7287 62.1861 86.4305 60.7919C86.3542 60.5108 86.3366 60.4448 86.4099 60.708C86.4176 60.7353 86.4244 60.7633 86.4305 60.7919C86.7493 61.9661 88.0925 66.8922 88.1172 67.2574C88.1389 67.5774 88.7095 67.9472 86.0353 71.5548Z" fill="black" stroke="black"/>
<path d="M87.8216 84.0508C86.9851 83.3916 85.6475 80.7418 86.532 79.257C87.6153 77.4384 89.3288 74.803 89.1537 73.3829C89.1022 73.0947 89.0905 73.0271 89.1405 73.297C89.1457 73.3251 89.1501 73.3537 89.1537 73.3829C89.3685 74.5863 90.2755 79.6361 90.2683 80.0022C90.262 80.3231 90.7976 80.7537 87.8216 84.0508Z" fill="black" stroke="black"/>
<path d="M14.4437 18.1831L15.4737 20.6547C16.2714 22.4864 15.698 23.8262 13.8505 24.6339C13.7031 24.7176 13.5127 24.7501 13.3223 24.7827C13.0852 24.8115 12.9918 24.804 12.9488 24.7528L11.8401 22.0838L6.83312 24.2631C6.83312 24.2631 6.87245 24.3618 6.95112 24.5592C7.03346 24.7091 7.0728 24.8078 7.06912 24.8553C7.38747 25.5975 7.38271 26.2661 7.05115 26.9085C6.76627 27.5546 6.16564 28.0321 5.33892 28.3959C5.1952 28.4322 5.04779 28.516 4.85738 28.5485C4.66697 28.581 4.52691 28.5698 4.53426 28.4748L2.54916 23.7767C2.54916 23.7767 2.55284 23.7292 2.55651 23.6817C2.55651 23.6817 2.56019 23.6342 2.61055 23.5905C2.71862 23.408 2.77633 23.2693 2.8844 23.0868C2.94579 22.9006 3.0182 22.5719 3.10898 22.0058C3.19977 21.4397 3.15417 20.8149 3.11226 20.1426C3.02365 19.4666 2.81337 18.5419 2.5281 17.3723C2.19614 16.199 1.73148 14.9195 1.13411 13.5338C1.13779 13.4863 1.13779 13.4863 1.18815 13.4426C2.23835 12.6188 3.47161 11.8575 4.97763 11.2136C6.48366 10.5697 7.87793 10.1558 9.20715 9.97553L9.30052 9.983C9.30052 9.983 9.30052 9.983 9.29684 10.0305L12.9843 18.8308L14.4437 18.1831C14.4043 18.0844 14.4043 18.0844 14.4437 18.1831ZM6.28829 21.5915L9.59147 20.1836L6.65867 13.1639L4.95489 13.9353C6.53194 17.8363 6.99442 20.3579 6.28829 21.5915Z" fill="black"/>
<path d="M22.7205 15.6444C22.8102 15.6993 22.8532 15.7506 22.8422 15.893C22.8275 16.083 22.8055 16.3679 22.6864 16.6928C22.5673 17.0177 22.3978 17.3864 22.178 17.7989C21.9582 18.2113 21.6487 18.5687 21.1991 18.915C20.7496 19.2612 20.2607 19.5088 19.7288 19.7051C18.5249 20.0865 17.3615 19.9456 16.2348 19.3298C15.1081 18.7139 14.3806 17.7956 14.056 16.5273C13.681 15.3028 13.8196 14.1194 14.425 12.9733C15.0304 11.8273 16.0266 11.0948 17.3742 10.6771C18.578 10.2957 19.6088 10.3304 20.4233 10.7301C21.2846 11.1335 21.7577 11.697 21.9864 12.3843C22.172 13.0203 22.1316 13.5426 21.9511 14.0538C21.724 14.5612 21.4108 14.9661 20.9649 15.2649C20.519 15.5636 19.9834 15.8074 19.4012 16.0475C18.8189 16.2876 18.2477 16.3852 17.6801 16.4353C18.1889 17.145 18.9174 17.4422 19.9162 17.2833C20.8682 17.1206 21.7527 16.6181 22.5731 15.7281C22.5805 15.6332 22.6272 15.6369 22.7205 15.6444ZM17.3452 12.8727C16.9349 13.3176 16.8331 14.0262 17.0827 15.0496C17.7977 14.9157 18.3333 14.6719 18.5961 14.3107C18.9056 13.9532 18.9817 13.5771 18.8317 13.0873C18.7567 12.8424 18.6277 12.6887 18.4016 12.575C18.1755 12.4614 17.9888 12.4464 17.748 12.5227L17.7013 12.5189C17.597 12.6539 17.4496 12.7377 17.3452 12.8727Z" fill="black"/>
<path d="M31.4471 13.9541C31.4901 14.0053 31.5294 14.104 31.5688 14.2027C31.5504 14.4402 31.4853 14.6739 31.3662 14.9988C31.2471 15.3237 31.0347 15.6412 30.8185 16.0061C30.5557 16.3673 30.2462 16.7248 29.8003 17.0236C29.3544 17.3223 28.8225 17.5186 28.298 17.62C27.0584 17.8552 25.9024 17.6193 24.8297 16.9122C23.7571 16.2052 23.1303 15.1994 22.899 13.9386C22.6641 12.7252 22.8961 11.5493 23.5408 10.5019C24.2322 9.45833 25.178 8.76957 26.4212 8.48687C27.4237 8.28046 28.361 8.30773 29.1363 8.60871C29.9619 8.86595 30.4387 9.38194 30.5666 10.1567C30.6736 10.5953 30.5938 11.0189 30.3273 11.4276C30.0608 11.8363 29.712 12.095 29.2845 12.1564C29.0474 12.1852 28.7636 12.2102 28.5302 12.1915C28.2968 12.1728 28.11 12.1579 28.067 12.1067C28.024 12.0554 28.0277 12.008 27.9847 11.9567C27.9883 11.9092 27.949 11.8105 27.9564 11.7156C27.9637 11.6206 27.9244 11.5219 27.9317 11.4269C27.8641 11.087 27.7461 10.7909 27.5704 10.6335C27.3947 10.4761 27.1686 10.3624 26.9278 10.4387C26.5003 10.5 26.2375 10.8612 26.0963 11.4711C25.9552 12.0809 26.0008 12.7057 26.1864 13.3417C26.3327 13.879 26.5798 14.3288 26.8808 14.6874C27.1856 14.9985 27.5443 15.2184 27.9141 15.2958C28.284 15.3731 28.6611 15.3556 29.0923 15.2467C29.5235 15.1379 29.908 15.0254 30.2531 14.8141C30.5983 14.6028 30.9472 14.3441 31.296 14.0853C31.3107 13.8954 31.3574 13.8991 31.4471 13.9541Z" fill="black"/>
<path d="M40.1079 13.1188C40.1976 13.1737 40.2369 13.2724 40.1829 13.3637C40.1682 13.5536 40.0528 13.8311 39.887 14.1523C39.7212 14.4735 39.5087 14.7909 39.2029 15.1009C38.8934 15.4584 38.5409 15.7646 38.0053 16.0084C37.5164 16.2559 36.9882 16.4048 36.4169 16.5024C35.1381 16.6389 34.0397 16.2642 33.0714 15.4222C32.1032 14.5802 31.5735 13.5343 31.4393 12.2335C31.3051 10.9327 31.6734 9.81543 32.4545 8.8268C33.2823 7.8419 34.3608 7.25933 35.7797 7.13404C37.0119 6.9938 38.0279 7.2185 38.7811 7.80441C39.5343 8.39031 39.9571 8.99753 39.9953 9.71731C40.0409 10.3421 39.9501 10.9082 39.6333 11.3607C39.3164 11.8131 38.9136 12.1631 38.4283 12.3631C37.9431 12.5632 37.3682 12.7083 36.7503 12.8021C36.1323 12.896 35.5648 12.9461 34.9616 12.85C35.3229 13.6435 35.9938 14.0794 36.9778 14.1104C37.9619 14.1415 38.9287 13.7888 39.8745 13.1001C39.9715 13.0601 40.0182 13.0638 40.1079 13.1188ZM35.3772 9.29974C34.881 9.64225 34.6858 10.3433 34.6983 11.3955C35.449 11.4078 35.9772 11.259 36.3297 10.9528C36.6786 10.694 36.8517 10.2779 36.7951 9.79552C36.7668 9.55435 36.6881 9.35692 36.5087 9.247C36.333 9.08958 36.0996 9.07089 35.8625 9.09969L35.8158 9.09595C35.6217 9.17597 35.5246 9.21598 35.3772 9.29974Z" fill="black"/>
<path d="M47.3634 6.77139C48.3474 6.8024 49.1584 7.24958 49.7421 8.20417C50.3259 9.15875 50.6185 10.2334 50.6163 11.4755C50.6141 12.7176 50.2925 13.8386 49.6588 14.7435C49.0251 15.6484 48.2377 16.1109 47.1603 16.0724C46.0792 16.0814 45.2326 15.488 44.6599 14.391L44.6045 19.3558C44.6008 19.4033 44.5971 19.4507 44.5037 19.4433L41.1241 19.4115L41.0344 19.3566C41.0344 19.3566 41.0344 19.3566 41.0381 19.3091C41.1045 14.2019 41.0989 11.239 41.1147 10.428C41.1158 9.80691 41.0592 9.32456 40.9952 8.93719C40.9313 8.54982 40.8059 8.34866 40.6732 8.24247C40.5368 8.18377 40.4508 8.08132 40.3611 8.02636C40.2714 7.9714 40.2788 7.87642 40.2861 7.78145C40.4016 7.50401 40.6607 7.19029 41.0562 6.93527C41.4518 6.68026 41.8829 6.57144 42.3535 6.56134C42.9173 6.55871 43.4199 6.74229 43.861 7.11208C44.2554 7.47813 44.5491 7.93168 44.6414 8.56022C45.3402 7.42165 46.2356 6.77664 47.3634 6.77139ZM44.9458 13.1238C45.1462 13.5699 45.4583 13.786 45.8784 13.8196C46.2556 13.802 46.6008 13.5908 46.8206 13.1784C47.0441 12.7184 47.1779 12.2036 47.1863 11.4875C47.1911 10.819 47.0951 10.2379 46.8444 9.83559C46.6441 9.38952 46.332 9.1734 45.9081 9.18725C45.531 9.20483 45.1858 9.41609 44.966 9.82852C44.7462 10.2409 44.6087 10.8033 44.604 11.4719C44.6029 12.0929 44.6988 12.674 44.9458 13.1238Z" fill="black"/>
<path d="M59.3238 8.82813C59.2833 9.35049 59.0672 9.71543 58.7184 9.97418C58.3695 10.2329 57.985 10.3455 57.6079 10.3631C57.2307 10.3806 56.8609 10.3033 56.4911 10.2259L56.1809 13.0201C56.1331 13.6374 56.1431 14.116 56.2071 14.5034C56.271 14.8908 56.3927 15.1394 56.5291 15.1981C56.6618 15.3043 56.7515 15.3593 56.8375 15.4617C56.9272 15.5167 56.9665 15.6154 56.9125 15.7066C56.7971 15.9841 56.4949 16.2466 56.0564 16.4504C55.6178 16.6541 55.1866 16.763 54.7235 16.6781C54.0232 16.622 53.5317 16.296 53.1016 15.7837C52.7182 15.2752 52.5829 14.5955 52.6417 13.8357L53.1052 9.66805L50.9184 9.39738C50.8717 9.39364 50.8754 9.34616 50.8754 9.34616L51.0691 7.45043L51.0801 7.30797C51.0801 7.30797 51.0838 7.26048 51.1305 7.26422C52.1219 7.20026 53.2963 7.19875 54.5998 7.3509C55.9033 7.50306 56.88 7.62905 57.5729 7.78009C58.2191 7.9274 58.7757 8.01975 59.1885 8.14836C59.2819 8.15584 59.3212 8.25455 59.3139 8.34953C59.3532 8.44824 59.3852 8.64192 59.3238 8.82813Z" fill="black"/>
<path d="M67.3463 15.6343C67.5403 15.5543 67.6337 15.5617 67.7197 15.6642C67.7591 15.7629 67.748 15.9054 67.6866 16.0916C67.6216 16.3253 67.4632 16.5515 67.2077 16.8177C66.9522 17.0839 66.6501 17.3464 66.2545 17.6014C65.859 17.8565 65.3775 18.009 64.8062 18.1066C64.235 18.2042 63.6244 18.2031 62.9782 18.0558C61.639 17.7575 60.7028 17.1091 60.1264 16.0595C59.5499 15.01 59.4047 13.8516 59.6907 12.5844L61.2774 4.82763C61.2811 4.78015 61.3315 4.73639 61.3782 4.74013L69.2337 6.42034C69.2804 6.42408 69.3234 6.4753 69.3664 6.52653C69.3627 6.57402 69.402 6.67273 69.3947 6.7677C69.3873 6.86267 69.3726 7.05262 69.3076 7.28632C69.2425 7.52001 69.1738 7.80119 69.0657 7.98366C68.954 8.21362 68.7525 8.38861 68.5007 8.60736C68.2489 8.8261 67.9111 8.94239 67.5303 9.00746C67.1495 9.07253 66.679 9.08263 66.1728 8.94654C65.6629 8.85793 65.2034 8.72557 64.8877 8.55695L64.3778 8.46834C64.3741 8.51583 64.3017 8.8445 64.1679 9.35937C64.0305 9.92174 63.9507 10.3454 63.8783 10.674L66.6069 11.227L66.6966 11.282C66.6966 11.282 66.6966 11.282 66.693 11.3295L66.3272 13.0203C66.3236 13.0678 66.2732 13.1115 66.2265 13.1078L63.4979 12.5548L63.2623 13.7783C63.1751 14.2969 63.2821 14.7355 63.5402 15.0428C63.7982 15.3502 64.2 15.6212 64.6632 15.7061C65.1227 15.8385 65.5895 15.8759 66.06 15.8658C66.5772 15.8594 67.0084 15.7506 67.3463 15.6343Z" fill="black"/>
<path d="M67.6069 16.5151C68.2138 16.5637 68.9398 16.2874 69.7812 15.7336C70.6226 15.1799 71.2736 14.6586 71.7809 14.1736C72.6984 13.2437 73.5288 12.8324 74.2217 12.9834C74.4562 12.3811 74.504 11.7637 74.4547 11.1864C74.3624 10.5579 74.1547 10.2068 73.8353 10.0856C73.7886 10.0819 73.7419 10.0782 73.6952 10.0744C73.6485 10.0707 73.6018 10.0669 73.5552 10.0632C73.5085 10.0595 73.4581 10.1032 73.4581 10.1032C73.4078 10.147 73.4078 10.147 73.3574 10.1907C73.3574 10.1907 73.307 10.2345 73.2567 10.2782C73.2063 10.322 73.2027 10.3694 73.2027 10.3694C73.2027 10.3694 73.1523 10.4132 73.1449 10.5082C73.1413 10.5557 73.0909 10.5994 73.0872 10.6469C73.0872 10.6469 73.0835 10.6944 73.0295 10.7856C73.0258 10.8331 72.9755 10.8768 72.9755 10.8768C72.9718 10.9243 72.8281 10.9606 72.6413 10.9457C72.4079 10.927 72.1745 10.9083 71.9017 10.7909C71.629 10.6735 71.3562 10.5561 71.0871 10.3912C70.8181 10.2263 70.603 9.97016 70.4924 9.57905C70.378 9.23543 70.3644 8.80431 70.4442 8.38067C70.5927 7.67585 71.0029 7.23088 71.6282 7.04205C72.2535 6.85321 72.9537 6.90928 73.6786 7.25402C74.7193 7.76738 75.4001 8.68195 75.6817 9.89902C75.9633 11.1161 75.9107 12.402 75.4811 13.7054C75.5277 13.7092 75.5707 13.7604 75.6604 13.8154C75.7501 13.8703 75.7931 13.9215 75.8362 13.9728L77.4285 9.17884C77.4322 9.13135 77.4788 9.13509 77.5255 9.13883L80.9067 10.3652L80.9497 10.4164C80.9497 10.4164 80.9497 10.4164 80.946 10.4639L79.1743 15.1479C79.221 15.1517 79.3144 15.1591 79.4077 15.1666C79.5011 15.1741 79.5945 15.1816 79.5945 15.1816C79.8904 14.393 80.319 13.7106 80.8839 13.0869C81.4022 12.4595 82.0496 11.9857 82.8259 11.6656C83.5556 11.3418 84.3136 11.2591 85.0962 11.4652C85.8321 11.6674 86.4133 12.0484 86.793 12.6044C87.1727 13.1604 87.1716 13.7815 86.8401 14.4239C86.6203 14.8363 86.3611 15.15 86.0196 15.3138C85.6782 15.4776 85.3907 15.5501 85.0639 15.524C84.7371 15.4978 84.4607 15.4279 84.1879 15.3105C83.9152 15.1931 83.6891 15.0794 83.5097 14.9695C83.334 14.8121 83.2443 14.7571 83.2946 14.7134C83.2983 14.6659 83.3487 14.6221 83.4027 14.5309C83.4568 14.4396 83.4641 14.3447 83.5145 14.3009C83.5181 14.2534 83.5255 14.1585 83.5328 14.0635C83.5402 13.9685 83.4972 13.9173 83.4578 13.8186C83.3682 13.7636 83.2785 13.7087 83.1888 13.6537C82.8693 13.5325 82.4848 13.6451 82.0279 14.0863C81.5747 14.4801 81.2505 15.0275 81.0626 15.6336C81.6942 15.9708 82.0985 16.8155 82.2291 18.1638C82.3177 18.8398 82.4886 19.6658 82.7886 20.6455C83.0886 21.6251 83.4573 22.3235 83.9487 22.6496C84.0348 22.752 83.9734 22.9382 83.7142 23.252C83.2967 23.7919 82.7611 24.0357 82.1468 24.0821C81.9564 24.1146 81.7697 24.0997 81.5399 24.0335C80.9404 23.8899 80.4415 23.6588 80.0471 23.2928C79.6527 22.9267 79.3553 22.5207 79.1549 22.0746C78.9546 21.6285 78.855 21.095 78.8057 20.5176C78.7564 19.9403 78.7538 19.3668 78.8446 18.8006C78.9354 18.2345 79.0262 17.6684 79.1673 17.0586C79.0346 16.9524 78.8946 16.9412 78.7042 16.9737L77.0541 21.9064C77.0505 21.9539 77.0038 21.9501 76.9571 21.9464L73.5759 20.72L73.5329 20.6688C73.5329 20.6688 73.5329 20.6688 73.5366 20.6213L75.3697 15.7511C75.2874 15.6012 75.151 15.5425 74.9643 15.5275C74.6253 16.2649 74.2471 16.9035 73.8762 17.4472C73.455 18.0346 72.9944 18.5233 72.4908 18.9608C71.9872 19.3983 71.4049 19.6383 70.7403 19.7285C70.0757 19.8186 69.4295 19.6713 68.7512 19.3303C68.073 18.9893 67.697 18.3858 67.5727 17.5636C67.5161 17.0812 67.5848 16.8001 67.6892 16.6651C67.5602 16.5114 67.5602 16.5114 67.6069 16.5151Z" fill="black"/>
<path d="M92.8363 29.8117C92.8326 29.8592 92.7859 29.8554 92.7392 29.8517L89.4095 27.9605C89.3629 27.9568 89.3665 27.9093 89.3739 27.8143L89.887 26.0397L87.2749 24.5882L86.0872 25.9743L86.0368 26.0181L85.9901 26.0144L82.9295 24.2881L82.8865 24.2368C82.8865 24.2368 82.8902 24.1894 82.9369 24.1931C87.5527 19.7846 89.8876 17.5347 89.8876 17.5347C90.3912 17.0973 90.654 16.7361 90.7191 16.5024C90.7841 16.2687 90.7988 16.0787 90.8135 15.8888C90.8282 15.6988 90.8356 15.6039 90.8896 15.5126C91.1414 15.2939 91.5259 15.1813 92.0861 15.2262C92.6463 15.271 93.1525 15.4071 93.5543 15.6782C94.1391 16.0117 94.5729 16.4765 94.8483 17.1675C95.1236 17.8585 95.2049 18.6295 95.038 19.5717C94.9435 20.1853 94.7116 21.3613 94.3925 23.0558C94.0268 24.7467 93.7188 26.2988 93.4218 27.7084L92.8363 29.8117ZM88.7757 22.7972L90.4872 23.7465L91.9899 18.8976C91.6804 19.2551 91.1117 19.9263 90.2839 20.9111C89.4991 21.9473 88.9845 22.5272 88.7757 22.7972Z" fill="black"/>
</svg>
