<svg width="32" height="32" viewBox="0 0 32 32" fill="none" xmlns="http://www.w3.org/2000/svg">
<path d="M21.2925 26.329H30.5803C30.9198 26.1013 31.1429 25.7159 31.1429 25.2786C31.1429 24.9989 31.0505 24.7412 30.8956 24.5316C30.876 24.5332 30.8561 24.5345 30.836 24.5345C30.6138 24.5345 30.4102 24.4337 30.2773 24.258C30.2621 24.2378 30.2378 24.2257 30.2125 24.2257C30.1871 24.2257 30.1629 24.2377 30.1477 24.2579C30.0147 24.4337 29.8112 24.5345 29.589 24.5345C29.3668 24.5345 29.1632 24.4337 29.0303 24.258C29.0151 24.2378 28.9908 24.2257 28.9654 24.2257C28.9401 24.2257 28.9158 24.2377 28.9005 24.2579C28.7677 24.4337 28.5641 24.5345 28.3419 24.5345C28.1199 24.5345 27.9162 24.4337 27.7833 24.258C27.7682 24.2378 27.7438 24.2257 27.7185 24.2257C27.6932 24.2257 27.6688 24.2377 27.6536 24.2579C27.5207 24.4337 27.3171 24.5345 27.095 24.5345C26.8728 24.5345 26.6692 24.4337 26.5363 24.258C26.5211 24.2378 26.4968 24.2257 26.4715 24.2257C26.4461 24.2257 26.4219 24.2377 26.4067 24.258C26.2737 24.4336 26.0702 24.5345 25.848 24.5345C25.6257 24.5345 25.4222 24.4337 25.2893 24.258C25.2741 24.2378 25.2498 24.2257 25.2245 24.2257C25.1992 24.2257 25.1748 24.2377 25.1597 24.2579C25.0268 24.4337 24.8232 24.5345 24.601 24.5345C24.3789 24.5345 24.1752 24.4337 24.0423 24.2579C24.0272 24.2378 24.0029 24.2257 23.9775 24.2257C23.952 24.2257 23.9279 24.2378 23.9126 24.258C23.7798 24.4336 23.5762 24.5345 23.354 24.5345C23.1319 24.5345 22.9282 24.4337 22.7954 24.258C22.7802 24.2378 22.7559 24.2257 22.7305 24.2257C22.7052 24.2257 22.6807 24.2377 22.6656 24.2579C22.5327 24.4337 22.329 24.5345 22.1069 24.5345C22.0087 24.5345 21.9146 24.5138 21.828 24.4765C21.7597 24.5061 21.6857 24.525 21.608 24.5315C21.7628 24.7411 21.8553 24.9988 21.8553 25.2786C21.8554 25.7159 21.632 26.1013 21.2925 26.329Z" fill="#7F332D"/>
<path d="M10.5841 26.329C10.2434 26.1018 10.0189 25.7167 10.0189 25.2786C10.0189 24.9989 10.1113 24.7412 10.2661 24.5316C10.2115 24.527 10.1589 24.5163 10.1086 24.5001C10.1086 24.5001 10.1088 24.5001 10.1089 24.5001C10.0401 24.5221 9.9676 24.5345 9.89267 24.5345C9.67042 24.5345 9.46686 24.4337 9.33404 24.2579C9.31879 24.2378 9.29448 24.2257 9.26911 24.2257C9.24379 24.2257 9.21948 24.2377 9.20429 24.2579C9.07142 24.4337 8.86779 24.5345 8.64567 24.5345C8.42354 24.5345 8.21992 24.4337 8.08698 24.2579C8.0718 24.2378 8.04755 24.2258 8.02223 24.2258C7.99686 24.2258 7.97255 24.2377 7.95736 24.2579C7.82455 24.4337 7.6208 24.5345 7.39873 24.5345C7.17648 24.5345 6.97292 24.4337 6.84011 24.2579C6.82492 24.2378 6.80061 24.2257 6.7753 24.2257C6.74992 24.2257 6.72561 24.2377 6.71048 24.2579C6.57749 24.4337 6.37392 24.5345 6.1518 24.5345C5.92961 24.5345 5.72599 24.4337 5.59317 24.2579C5.57792 24.2378 5.55374 24.2258 5.5283 24.2258C5.50299 24.2258 5.47868 24.2378 5.46349 24.258C5.33061 24.4336 5.12699 24.5345 4.9048 24.5345C4.68268 24.5345 4.47905 24.4337 4.34624 24.2579C4.33099 24.2378 4.30674 24.2257 4.28136 24.2257C4.25599 24.2257 4.23168 24.2377 4.21649 24.2579C4.08362 24.4337 3.87993 24.5345 3.65787 24.5345C3.4358 24.5345 3.23205 24.4337 3.0993 24.2579C3.08399 24.2378 3.05974 24.2257 3.0343 24.2257C3.00899 24.2257 2.98474 24.2377 2.96949 24.2579C2.83662 24.4337 2.63293 24.5345 2.41087 24.5345C2.18868 24.5345 1.98512 24.4337 1.85218 24.2579C1.83693 24.2378 1.81268 24.2257 1.78731 24.2257C1.76199 24.2257 1.73768 24.2377 1.72249 24.2579C1.58962 24.4337 1.38593 24.5345 1.16387 24.5345C1.14087 24.5345 1.11806 24.5333 1.09562 24.5311C0.945933 24.7387 0.856934 24.9923 0.856934 25.2669C0.856934 25.7121 1.08887 26.103 1.43887 26.329L10.5841 26.329Z" fill="#F6B142"/>
<path d="M21.6113 6.64637C21.3891 6.64637 21.1854 6.54555 21.0526 6.3698C21.0373 6.34962 21.013 6.33755 20.9876 6.33755C20.9623 6.33755 20.9381 6.34955 20.9228 6.3698C20.7899 6.54555 20.5864 6.64637 20.3642 6.64637C20.1419 6.64637 19.9385 6.54555 19.8056 6.3698C19.7903 6.34962 19.7661 6.33755 19.7407 6.33755C19.7154 6.33755 19.6911 6.34955 19.6758 6.3698C19.5429 6.54555 19.3393 6.64637 19.1171 6.64637C18.8951 6.64637 18.6915 6.54555 18.5585 6.3698C18.5434 6.34962 18.519 6.33755 18.4937 6.33755C18.4683 6.33755 18.4441 6.34955 18.4288 6.3698C18.2959 6.54555 18.0923 6.64637 17.8702 6.64637C17.648 6.64637 17.4443 6.54555 17.3115 6.3698C17.2963 6.34962 17.272 6.33755 17.2466 6.33755C17.2213 6.33755 17.197 6.34955 17.1818 6.3698C17.0489 6.54555 16.8453 6.64637 16.6231 6.64637C16.4009 6.64637 16.1973 6.54555 16.0645 6.3698C16.0493 6.34962 16.025 6.33755 15.9997 6.33755C15.9744 6.33755 15.9501 6.34955 15.9349 6.3698C15.8021 6.54555 15.5983 6.64637 15.3762 6.64637C15.1541 6.64637 14.9504 6.54555 14.8176 6.3698C14.8025 6.34962 14.7782 6.33755 14.7528 6.33755C14.7273 6.33755 14.7031 6.34955 14.6879 6.3698C14.555 6.54555 14.3515 6.64637 14.1293 6.64637C13.9072 6.64637 13.7035 6.54555 13.5707 6.3698C13.5554 6.34962 13.5312 6.33755 13.5058 6.33755C13.4805 6.33755 13.4561 6.34955 13.441 6.3698C13.3081 6.54555 13.1043 6.64637 12.8823 6.64637C12.6602 6.64637 12.4566 6.54555 12.3238 6.3698C12.3085 6.34962 12.2843 6.33755 12.2589 6.33755C12.2335 6.33755 12.2092 6.34955 12.194 6.3698C12.0611 6.54555 11.8575 6.64637 11.6354 6.64637C11.4132 6.64637 11.2096 6.54555 11.0769 6.3698C11.0615 6.34962 11.0373 6.33755 11.0118 6.33755C10.9865 6.33755 10.9623 6.34955 10.947 6.3698C10.8142 6.54555 10.6105 6.64637 10.3884 6.64637C10.3683 6.64637 10.3484 6.64505 10.3288 6.64343C10.174 6.85305 10.0815 7.11074 10.0815 7.39049C10.0815 7.82768 10.3047 8.21311 10.6442 8.44086H21.3556C21.6951 8.21311 21.9183 7.82768 21.9183 7.39049C21.9183 7.11074 21.8259 6.85305 21.6711 6.64343C21.6513 6.64505 21.6314 6.64637 21.6113 6.64637Z" fill="#4CCE87"/>
<path opacity="0.1" d="M10.644 8.4408H12.3558C12.0163 8.21305 11.7932 7.82768 11.7932 7.39049C11.7932 6.96905 12.0014 6.59674 12.3205 6.36637C12.3052 6.34843 12.2827 6.33755 12.2589 6.33755C12.2335 6.33755 12.2092 6.34955 12.194 6.3698C12.0611 6.54555 11.8575 6.64637 11.6354 6.64637C11.4132 6.64637 11.2096 6.54555 11.0769 6.3698C11.0615 6.34962 11.0373 6.33755 11.0118 6.33755C10.9865 6.33755 10.9623 6.34955 10.947 6.3698C10.8142 6.54555 10.6105 6.64637 10.3884 6.64637C10.3683 6.64637 10.3485 6.64505 10.3288 6.64343C10.174 6.85305 10.0815 7.1108 10.0815 7.39055C10.0814 7.82768 10.3046 8.21305 10.644 8.4408Z" fill="black"/>
<path d="M11.103 11.4152H15.4898C15.7951 11.4152 16.0877 11.47 16.3584 11.5699C16.629 11.47 16.9216 11.4152 17.2269 11.4152H20.8964C21.7313 11.0009 22.3061 10.146 22.3061 9.16036V8.63892C22.3061 8.52948 22.2165 8.4408 22.1059 8.4408H9.89336C9.78292 8.4408 9.69336 8.52948 9.69336 8.63892V9.16036C9.69336 10.146 10.2681 11.0009 11.103 11.4152Z" fill="#A4E6C2"/>
<path d="M17.2937 15.6311C17.0716 15.6311 16.868 15.5303 16.7352 15.3545C16.7199 15.3344 16.6957 15.3223 16.6703 15.3223C16.645 15.3223 16.6206 15.3343 16.6055 15.3545C16.4726 15.5303 16.2689 15.6311 16.0468 15.6311C15.8246 15.6311 15.6211 15.5303 15.4881 15.3545C15.473 15.3344 15.4486 15.3223 15.4232 15.3223C15.3979 15.3223 15.3736 15.3343 15.3585 15.3545C15.2255 15.5303 15.0219 15.6311 14.7998 15.6311C14.5777 15.6311 14.374 15.5303 14.2412 15.3545C14.226 15.3344 14.2017 15.3223 14.1763 15.3223C14.151 15.3223 14.1267 15.3343 14.1115 15.3545C13.9786 15.5303 13.775 15.6311 13.5528 15.6311C13.3307 15.6311 13.127 15.5303 12.9942 15.3545C12.979 15.3345 12.9547 15.3224 12.9294 15.3224C12.904 15.3224 12.8798 15.3343 12.8645 15.3545C12.7317 15.5303 12.528 15.6311 12.3058 15.6311C12.0837 15.6311 11.88 15.5303 11.7472 15.3545C11.7319 15.3344 11.7077 15.3223 11.6823 15.3223C11.6569 15.3223 11.6327 15.3343 11.6175 15.3545C11.4846 15.5303 11.281 15.6311 11.0587 15.6311C10.8366 15.6311 10.633 15.5303 10.5001 15.3545C10.4849 15.3344 10.4607 15.3224 10.4353 15.3224C10.41 15.3224 10.3857 15.3344 10.3705 15.3546C10.2377 15.5303 10.034 15.6311 9.81184 15.6311C9.58972 15.6311 9.38609 15.5303 9.25322 15.3545C9.23797 15.3344 9.21366 15.3223 9.18834 15.3223C9.16297 15.3223 9.13866 15.3343 9.12353 15.3545C8.9906 15.5303 8.78691 15.6311 8.56491 15.6311C8.34278 15.6311 8.13903 15.5303 8.00622 15.3545C7.99097 15.3344 7.96672 15.3223 7.94128 15.3223C7.91597 15.3223 7.89172 15.3343 7.87647 15.3545C7.7436 15.5303 7.53997 15.6311 7.31785 15.6311C7.09566 15.6311 6.89204 15.5303 6.75922 15.3545C6.74404 15.3344 6.71972 15.3223 6.69435 15.3223C6.6691 15.3223 6.64472 15.3343 6.62954 15.3545C6.49666 15.5303 6.29304 15.6311 6.07085 15.6311C5.68766 15.6311 5.37598 15.3265 5.37598 14.952V13.8942C5.37598 12.5272 6.49679 11.4152 7.87453 11.4152H15.4901C16.868 11.4152 17.9887 12.5272 17.9887 13.8942L17.9888 14.952C17.9886 15.3265 17.6769 15.6311 17.2937 15.6311Z" fill="#FF96B1"/>
<path d="M21.6116 6.64635C21.3894 6.64635 21.1858 6.54554 21.0529 6.36979C21.0376 6.3496 21.0133 6.33754 20.988 6.33754C20.9626 6.33754 20.9384 6.34954 20.9231 6.36979C20.7902 6.54554 20.5867 6.64635 20.3645 6.64635C20.1423 6.64635 19.9388 6.54554 19.8059 6.36979C19.7906 6.3496 19.7664 6.33754 19.741 6.33754C19.7157 6.33754 19.6914 6.34954 19.6761 6.36979C19.5433 6.54554 19.3396 6.64635 19.1175 6.64635C18.8955 6.64635 18.6918 6.54554 18.5588 6.36979C18.5437 6.3496 18.5193 6.33754 18.494 6.33754C18.4686 6.33754 18.4444 6.34954 18.4291 6.36979C18.2962 6.54554 18.0926 6.64635 17.8705 6.64635C17.6483 6.64635 17.4446 6.54554 17.3118 6.36979C17.2966 6.3496 17.2723 6.33754 17.247 6.33754C17.2216 6.33754 17.1973 6.34954 17.1821 6.36979C17.0492 6.54554 16.8456 6.64635 16.6235 6.64635C16.4012 6.64635 16.1976 6.54554 16.0648 6.36979C16.0496 6.3496 16.0253 6.33754 16 6.33754C15.9747 6.33754 15.9504 6.34954 15.9352 6.36979C15.8024 6.54554 15.5986 6.64635 15.3765 6.64635C15.1544 6.64635 14.9507 6.54554 14.8179 6.36979C14.8028 6.3496 14.7785 6.33754 14.7531 6.33754C14.7276 6.33754 14.7034 6.34954 14.6882 6.36979C14.5553 6.54554 14.3518 6.64635 14.1296 6.64635C13.9075 6.64635 13.7038 6.54554 13.571 6.36979C13.5557 6.3496 13.5315 6.33754 13.5061 6.33754C13.4808 6.33754 13.4564 6.34954 13.4413 6.36979C13.3084 6.54554 13.1047 6.64635 12.8826 6.64635C12.6605 6.64635 12.4569 6.54554 12.3241 6.36979C12.3088 6.3496 12.2846 6.33754 12.2592 6.33754C12.2338 6.33754 12.2095 6.34954 12.1943 6.36979C12.0614 6.54554 11.8578 6.64635 11.6357 6.64635C11.4135 6.64635 11.2099 6.54554 11.0772 6.36979C11.0618 6.3496 11.0376 6.33754 11.0121 6.33754C10.9868 6.33754 10.9626 6.34954 10.9473 6.36979C10.8145 6.54554 10.6108 6.64635 10.3887 6.64635C10.0055 6.64635 9.69385 6.34172 9.69385 5.96723V4.90942C9.69385 3.54248 10.8147 2.43042 12.1923 2.43042H19.808C21.1858 2.43042 22.3066 3.54248 22.3066 4.90942V5.96723C22.3064 6.34172 21.9947 6.64635 21.6116 6.64635Z" fill="#A4E6C2"/>
<path d="M26.7059 15.6281C26.6861 15.6297 26.6663 15.631 26.6462 15.631C26.4241 15.631 26.2205 15.5303 26.0876 15.3545C26.0723 15.3344 26.0481 15.3223 26.0228 15.3223C25.9974 15.3223 25.9731 15.3343 25.9579 15.3545C25.825 15.5303 25.6213 15.631 25.3992 15.631C25.1771 15.631 24.9734 15.5303 24.8406 15.3545C24.8253 15.3344 24.801 15.3223 24.7757 15.3223C24.7503 15.3223 24.726 15.3343 24.7109 15.3545C24.5779 15.5303 24.3743 15.631 24.1522 15.631C23.93 15.631 23.7264 15.5303 23.5935 15.3545C23.5783 15.3344 23.554 15.3223 23.5287 15.3223C23.5033 15.3223 23.479 15.3343 23.4638 15.3545C23.331 15.5303 23.1273 15.631 22.9052 15.631C22.683 15.631 22.4793 15.5303 22.3465 15.3545C22.3313 15.3344 22.307 15.3224 22.2817 15.3224C22.2563 15.3224 22.232 15.3343 22.2168 15.3545C22.084 15.5303 21.8803 15.631 21.6582 15.631C21.4359 15.631 21.2323 15.5303 21.0995 15.3545C21.0843 15.3344 21.0601 15.3223 21.0347 15.3223C21.0093 15.3223 20.985 15.3343 20.9698 15.3545C20.837 15.5303 20.6333 15.631 20.4112 15.631C20.189 15.631 19.9855 15.5303 19.8525 15.3545C19.8373 15.3344 19.813 15.3224 19.7876 15.3224C19.7624 15.3224 19.738 15.3344 19.7228 15.3545C19.59 15.5303 19.3864 15.631 19.1642 15.631C18.9421 15.631 18.7384 15.5303 18.6055 15.3545C18.5904 15.3344 18.566 15.3223 18.5407 15.3223C18.5153 15.3223 18.491 15.3343 18.4759 15.3545C18.343 15.5303 18.1393 15.631 17.9172 15.631C17.806 15.631 17.6995 15.6058 17.6041 15.5585C17.5273 15.5963 17.4425 15.6207 17.3527 15.6281C17.5077 15.8375 17.6005 16.0952 17.6005 16.3752C17.6005 16.8134 17.3755 17.1984 17.0347 17.4256H26.3904C26.7299 17.1978 26.9531 16.8124 26.9531 16.3752C26.9532 16.0955 26.8606 15.8377 26.7059 15.6281Z" fill="#FAE4C8"/>
<path d="M6.3263 17.4256H17.0378C17.3773 17.1979 17.6005 16.8124 17.6005 16.3752C17.6005 16.0955 17.508 15.8377 17.3532 15.6281C17.3335 15.6297 17.3136 15.631 17.2935 15.631C17.0713 15.631 16.8678 15.5303 16.735 15.3545C16.7197 15.3344 16.6955 15.3223 16.6701 15.3223C16.6447 15.3223 16.6204 15.3343 16.6052 15.3545C16.4723 15.5303 16.2687 15.631 16.0465 15.631C15.8244 15.631 15.6208 15.5303 15.4879 15.3545C15.4727 15.3344 15.4483 15.3223 15.423 15.3223C15.3977 15.3223 15.3733 15.3343 15.3582 15.3545C15.2252 15.5303 15.0217 15.631 14.7996 15.631C14.5775 15.631 14.3738 15.5303 14.241 15.3545C14.2257 15.3344 14.2015 15.3223 14.176 15.3223C14.1507 15.3223 14.1265 15.3343 14.1113 15.3545C13.9783 15.5303 13.7747 15.631 13.5526 15.631C13.3305 15.631 13.1268 15.5303 12.994 15.3545C12.9788 15.3344 12.9545 15.3224 12.9292 15.3224C12.9038 15.3224 12.8795 15.3343 12.8642 15.3545C12.7315 15.5303 12.5278 15.631 12.3056 15.631C12.0834 15.631 11.8797 15.5303 11.747 15.3545C11.7317 15.3344 11.7075 15.3223 11.6821 15.3223C11.6567 15.3223 11.6324 15.3343 11.6173 15.3545C11.4843 15.5303 11.2807 15.631 11.0585 15.631C10.8363 15.631 10.6328 15.5303 10.4999 15.3545C10.4847 15.3344 10.4605 15.3224 10.435 15.3224C10.4097 15.3224 10.3854 15.3344 10.3702 15.3545C10.2374 15.5303 10.0337 15.631 9.8116 15.631C9.58948 15.631 9.38585 15.5303 9.25298 15.3545C9.23773 15.3344 9.21342 15.3223 9.1881 15.3223C9.16273 15.3223 9.13842 15.3343 9.12329 15.3545C8.99035 15.5303 8.78667 15.631 8.56467 15.631C8.34254 15.631 8.13879 15.5303 8.00598 15.3545C7.99073 15.3344 7.96648 15.3223 7.94104 15.3223C7.91573 15.3223 7.89148 15.3343 7.87623 15.3545C7.74336 15.5303 7.53973 15.631 7.31761 15.631C7.09542 15.631 6.89179 15.5303 6.75898 15.3545C6.7438 15.3344 6.71948 15.3223 6.69411 15.3223C6.66886 15.3223 6.64448 15.3343 6.6293 15.3545C6.49642 15.5303 6.2928 15.631 6.07061 15.631C6.05048 15.631 6.03061 15.6297 6.01098 15.6281C5.85617 15.8377 5.76367 16.0955 5.76367 16.3752C5.76361 16.8124 5.9868 17.1979 6.3263 17.4256Z" fill="#FF7697"/>
<path d="M16.729 20.3186H19.7449C20.0382 20.3186 20.3196 20.3694 20.5813 20.4619C20.5812 20.4619 20.5811 20.4618 20.5809 20.4618C20.8425 20.3693 21.1237 20.3186 21.4169 20.3186H26.0826C26.8349 19.88 27.3412 19.0702 27.3412 18.1452V17.6237C27.3412 17.5143 27.2515 17.4256 27.1412 17.4256H17.7886C17.899 17.4256 17.9886 17.5143 17.9886 17.6237V18.1452C17.9886 19.0705 17.4819 19.8802 16.729 20.3186Z" fill="#4CCE87"/>
<path d="M29.0326 20.3185H21.417C21.1239 20.3185 20.8427 20.3694 20.5811 20.4617C20.5812 20.4618 20.5813 20.4618 20.5815 20.4619C20.3198 20.3694 20.0384 20.3185 19.7451 20.3185H12.1294C10.7517 20.3185 9.63086 21.4307 9.63086 22.7975V23.8553C9.63086 24.2298 9.94261 24.5345 10.3258 24.5345C10.5479 24.5345 10.7515 24.4337 10.8844 24.2579C10.8996 24.2378 10.9238 24.2257 10.9492 24.2257C10.9745 24.2257 10.9989 24.2377 11.0141 24.2579C11.1469 24.4337 11.3506 24.5345 11.5727 24.5345C11.7949 24.5345 11.9985 24.4337 12.1314 24.2579C12.1465 24.2378 12.1709 24.2257 12.1962 24.2257C12.2215 24.2257 12.2458 24.2377 12.261 24.2579C12.394 24.4337 12.5976 24.5345 12.8197 24.5345C13.0419 24.5345 13.2455 24.4337 13.3784 24.2579C13.3935 24.2378 13.4178 24.2257 13.4432 24.2257C13.4685 24.2257 13.4928 24.2377 13.5081 24.2579C13.6409 24.4337 13.8446 24.5345 14.0667 24.5345C14.2889 24.5345 14.4925 24.4337 14.6253 24.258C14.6405 24.2378 14.6648 24.2257 14.6902 24.2257C14.7155 24.2257 14.7399 24.2377 14.755 24.2579C14.8879 24.4337 15.0915 24.5345 15.3137 24.5345C15.5358 24.5345 15.7395 24.4337 15.8723 24.2579C15.8876 24.2378 15.9118 24.2257 15.9372 24.2257C15.9625 24.2257 15.9867 24.2377 16.002 24.2579C16.1348 24.4337 16.3384 24.5345 16.5607 24.5345C16.7828 24.5345 16.9863 24.4337 17.1193 24.2579C17.1345 24.2378 17.1588 24.2257 17.184 24.2257C17.2094 24.2257 17.2337 24.2378 17.2489 24.2579C17.3818 24.4337 17.5854 24.5345 17.8075 24.5345C18.0297 24.5345 18.2333 24.4337 18.3662 24.2579C18.3814 24.2378 18.4057 24.2257 18.4311 24.2257C18.4565 24.2257 18.4807 24.2377 18.4959 24.2579C18.6288 24.4337 18.8325 24.5345 19.0545 24.5345C19.2768 24.5345 19.4803 24.4337 19.6133 24.2579C19.6285 24.2378 19.6528 24.2257 19.6782 24.2257C19.7035 24.2257 19.7278 24.2377 19.743 24.2579C19.8758 24.4337 20.0795 24.5345 20.3017 24.5345C20.5238 24.5345 20.7275 24.4337 20.8603 24.2579C20.8755 24.2378 20.8998 24.2257 20.9251 24.2257C20.9506 24.2257 20.9748 24.2377 20.99 24.2579C21.1228 24.4337 21.3265 24.5345 21.5486 24.5345C21.6482 24.5345 21.7427 24.5136 21.8285 24.4765C21.915 24.5138 22.0091 24.5345 22.1073 24.5345C22.3295 24.5345 22.5331 24.4337 22.666 24.2579C22.6811 24.2378 22.7056 24.2257 22.731 24.2257C22.7563 24.2257 22.7806 24.2377 22.7958 24.258C22.9286 24.4337 23.1323 24.5345 23.3544 24.5345C23.5766 24.5345 23.7802 24.4337 23.913 24.258C23.9283 24.2378 23.9525 24.2257 23.978 24.2257C24.0033 24.2257 24.0276 24.2377 24.0427 24.2579C24.1756 24.4337 24.3793 24.5345 24.6015 24.5345C24.8236 24.5345 25.0273 24.4337 25.1601 24.2579C25.1753 24.2378 25.1996 24.2257 25.2249 24.2257C25.2503 24.2257 25.2745 24.2377 25.2898 24.258C25.4226 24.4337 25.6261 24.5345 25.8484 24.5345C26.0706 24.5345 26.2741 24.4337 26.4071 24.258C26.4223 24.2378 26.4465 24.2257 26.472 24.2257C26.4973 24.2257 26.5215 24.2378 26.5368 24.258C26.6696 24.4337 26.8733 24.5345 27.0955 24.5345C27.3175 24.5345 27.5211 24.4337 27.654 24.2579C27.6693 24.2378 27.6936 24.2257 27.7189 24.2257C27.7443 24.2257 27.7686 24.2377 27.7838 24.258C27.9166 24.4337 28.1203 24.5345 28.3423 24.5345C28.5646 24.5345 28.7681 24.4337 28.9009 24.2579C28.9163 24.2378 28.9405 24.2257 28.9658 24.2257C28.9912 24.2257 29.0155 24.2377 29.0308 24.258C29.1636 24.4337 29.3672 24.5345 29.5894 24.5345C29.8116 24.5345 30.0151 24.4337 30.1481 24.2579C30.1633 24.2378 30.1875 24.2257 30.2129 24.2257C30.2383 24.2257 30.2625 24.2377 30.2778 24.258C30.4106 24.4337 30.6143 24.5345 30.8364 24.5345C31.2195 24.5345 31.5313 24.2298 31.5313 23.8554V22.7975C31.5313 21.4307 30.4104 20.3185 29.0326 20.3185Z" fill="#FFCB00"/>
<path d="M27.3415 13.8942C27.3415 12.5272 26.2207 11.4152 24.843 11.4152H17.2274C16.9221 11.4152 16.6296 11.47 16.3589 11.5698C17.3097 11.9207 17.9889 12.83 17.9889 13.8942L17.9889 14.952C17.9889 15.2173 17.8321 15.4469 17.6047 15.5586C17.7 15.6058 17.8065 15.6311 17.9178 15.6311C18.1399 15.6311 18.3436 15.5303 18.4764 15.3545C18.4916 15.3344 18.5159 15.3223 18.5413 15.3223C18.5666 15.3223 18.5909 15.3343 18.6061 15.3545C18.739 15.5303 18.9427 15.6311 19.1648 15.6311C19.387 15.6311 19.5906 15.5303 19.7234 15.3546C19.7386 15.3345 19.7629 15.3224 19.7882 15.3224C19.8136 15.3224 19.8379 15.3343 19.8531 15.3545C19.986 15.5303 20.1896 15.6311 20.4118 15.6311C20.634 15.6311 20.8376 15.5303 20.9704 15.3545C20.9856 15.3344 21.0099 15.3223 21.0353 15.3223C21.0607 15.3223 21.0849 15.3343 21.1001 15.3545C21.2329 15.5303 21.4366 15.6311 21.6588 15.6311C21.8809 15.6311 22.0846 15.5303 22.2174 15.3545C22.2326 15.3344 22.2569 15.3224 22.2822 15.3224C22.3076 15.3224 22.3319 15.3344 22.3471 15.3545C22.4799 15.5303 22.6836 15.6311 22.9057 15.6311C23.1279 15.6311 23.3316 15.5303 23.4644 15.3545C23.4796 15.3344 23.5039 15.3223 23.5292 15.3223C23.5546 15.3223 23.5789 15.3343 23.5941 15.3545C23.7271 15.5303 23.9306 15.6311 24.1528 15.6311C24.3749 15.6311 24.5785 15.5303 24.7115 15.3545C24.7266 15.3344 24.7509 15.3223 24.7762 15.3223C24.8016 15.3223 24.8259 15.3343 24.8412 15.3545C24.974 15.5303 25.1777 15.6311 25.3998 15.6311C25.6219 15.6311 25.8255 15.5303 25.9585 15.3545C25.9737 15.3344 25.998 15.3223 26.0234 15.3223C26.0487 15.3223 26.0729 15.3343 26.0882 15.3545C26.2211 15.5303 26.4247 15.6311 26.6468 15.6311C27.03 15.6311 27.3417 15.3265 27.3417 14.952L27.3415 13.8942Z" fill="#4CCE87"/>
<path opacity="0.1" d="M6.3263 17.4256H8.03804C7.69854 17.1978 7.47536 16.8124 7.47536 16.3752C7.47536 15.9538 7.68361 15.5815 8.00267 15.3511C7.98736 15.3332 7.96485 15.3223 7.94104 15.3223C7.91573 15.3223 7.89148 15.3343 7.87623 15.3545C7.74336 15.5303 7.53973 15.6311 7.31761 15.6311C7.09542 15.6311 6.89179 15.5303 6.75898 15.3545C6.7438 15.3344 6.71948 15.3223 6.69411 15.3223C6.66886 15.3223 6.64448 15.3343 6.6293 15.3545C6.49642 15.5303 6.2928 15.6311 6.07061 15.6311C6.05048 15.6311 6.03061 15.6298 6.01098 15.6281C5.85617 15.8378 5.76367 16.0955 5.76367 16.3753C5.76361 16.8124 5.9868 17.1978 6.3263 17.4256Z" fill="black"/>
<path d="M6.63466 20.3186H10.5828C10.8527 20.3186 11.1125 20.3618 11.3561 20.4407C11.5997 20.3618 11.8595 20.3186 12.1293 20.3186H16.73C17.4823 19.88 17.9886 19.0702 17.9886 18.1452V17.6237C17.9886 17.5143 17.899 17.4256 17.7886 17.4256H5.57604C5.46548 17.4256 5.37598 17.5143 5.37598 17.6237V18.1452C5.37598 19.0702 5.88229 19.88 6.63466 20.3186Z" fill="#FF96B1"/>
<path opacity="0.1" d="M6.63466 20.3186H8.69617C7.94385 19.88 7.43748 19.0703 7.43748 18.1451V17.6236C7.43748 17.5143 7.52704 17.4256 7.63754 17.4256H5.57604C5.46548 17.4256 5.37598 17.5143 5.37598 17.6236V18.1451C5.37598 19.0703 5.88229 19.88 6.63466 20.3186Z" fill="black"/>
<path opacity="0.1" d="M11.1032 11.4152H13.1647C12.3297 11.0009 11.7549 10.1461 11.7549 9.16036V8.63886C11.7549 8.52948 11.8444 8.4408 11.9549 8.4408H9.89342C9.78292 8.4408 9.69336 8.52948 9.69336 8.63886V9.16036C9.69342 10.146 10.2682 11.0009 11.1032 11.4152Z" fill="black"/>
<path opacity="0.1" d="M2.56819 25.2669C2.56819 24.8484 2.77363 24.4784 3.08894 24.2477C3.074 24.2339 3.05444 24.2257 3.03382 24.2257C3.0085 24.2257 2.98425 24.2377 2.969 24.2579C2.83613 24.4337 2.63244 24.5345 2.41038 24.5345C2.18819 24.5345 1.98463 24.4337 1.85169 24.2579C1.83644 24.2378 1.81219 24.2257 1.78682 24.2257C1.76151 24.2257 1.73719 24.2377 1.72201 24.2579C1.58913 24.4337 1.38544 24.5345 1.16338 24.5345C1.14038 24.5345 1.11757 24.5333 1.09513 24.5312C0.945445 24.7387 0.856445 24.9923 0.856445 25.2669C0.856445 25.7122 1.08844 26.103 1.43851 26.329H3.15025C2.80019 26.103 2.56819 25.7122 2.56819 25.2669Z" fill="black"/>
<path d="M9.63086 27.0485V26.527C9.63086 26.4176 9.72048 26.3289 9.83098 26.3289H0.668812C0.558312 26.3289 0.46875 26.4177 0.46875 26.527V27.0485C0.46875 28.4385 1.61131 29.5695 3.01556 29.5695H10.5346C10.8221 29.5695 11.0982 29.5214 11.3562 29.4342C10.3538 29.095 9.63086 28.154 9.63086 27.0485Z" fill="#7F332D"/>
<path d="M9.63086 23.8553V22.7975C9.63086 21.6984 10.3559 20.7645 11.3561 20.4406C11.1125 20.3618 10.8527 20.3185 10.5829 20.3185H2.96725C1.58956 20.3185 0.46875 21.4306 0.46875 22.7975V23.8554C0.46875 24.2298 0.780437 24.5345 1.16362 24.5345C1.38575 24.5345 1.58944 24.4337 1.72225 24.2579C1.73744 24.2378 1.76175 24.2257 1.78706 24.2257C1.81243 24.2257 1.83668 24.2377 1.85193 24.2579C1.98487 24.4337 2.18843 24.5345 2.41062 24.5345C2.63268 24.5345 2.83637 24.4337 2.96925 24.2579C2.9845 24.2378 3.00874 24.2257 3.03406 24.2257C3.05949 24.2257 3.08375 24.2377 3.09906 24.2579C3.23181 24.4337 3.43549 24.5345 3.65762 24.5345C3.87974 24.5345 4.08343 24.4337 4.21624 24.2579C4.23143 24.2378 4.25574 24.2257 4.28112 24.2257C4.30649 24.2257 4.33074 24.2377 4.34599 24.2579C4.47881 24.4337 4.68243 24.5345 4.90455 24.5345C5.1268 24.5345 5.33037 24.4337 5.46324 24.2579C5.47843 24.2378 5.50274 24.2258 5.52805 24.2258C5.55349 24.2258 5.57768 24.2377 5.59293 24.2579C5.7258 24.4337 5.92943 24.5345 6.15155 24.5345C6.37374 24.5345 6.5773 24.4337 6.71024 24.2579C6.72536 24.2378 6.74968 24.2257 6.77505 24.2257C6.80036 24.2257 6.82468 24.2377 6.83986 24.2579C6.97268 24.4337 7.1763 24.5345 7.39849 24.5345C7.62061 24.5345 7.8243 24.4337 7.95711 24.2579C7.9723 24.2378 7.99661 24.2258 8.02199 24.2258C8.0473 24.2258 8.07155 24.2378 8.08674 24.2579C8.21967 24.4337 8.42323 24.5345 8.64542 24.5345C8.86761 24.5345 9.07123 24.4337 9.20405 24.2579C9.21923 24.2378 9.24355 24.2257 9.26886 24.2257C9.29423 24.2257 9.31855 24.2377 9.3338 24.2579C9.46667 24.4337 9.67023 24.5345 9.89242 24.5345C9.96736 24.5345 10.0399 24.5221 10.1086 24.5001C9.83167 24.4108 9.63086 24.1558 9.63086 23.8553Z" fill="#7F332D"/>
<path d="M31.3321 26.329H22.0444C22.155 26.329 22.2445 26.4177 22.2445 26.5271V27.0486C22.2445 28.131 21.5517 29.0561 20.582 29.4126C20.8576 29.5139 21.1555 29.5696 21.4663 29.5696H28.9854C30.3897 29.5696 31.5321 28.4386 31.5321 27.0486V26.5271C31.5321 26.4178 31.4425 26.329 31.3321 26.329Z" fill="#F6B142"/>
<path d="M29.0326 20.3185H21.417C21.1239 20.3185 20.8426 20.3694 20.5811 20.4617C21.5488 20.8037 22.2436 21.7215 22.2436 22.7975L22.2437 23.8553C22.2437 24.1325 22.0727 24.3712 21.8285 24.4766C21.915 24.5138 22.0092 24.5346 22.1074 24.5346C22.3295 24.5346 22.5332 24.4338 22.6661 24.258C22.6812 24.2378 22.7056 24.2258 22.731 24.2258C22.7563 24.2258 22.7806 24.2378 22.7958 24.258C22.9286 24.4337 23.1323 24.5346 23.3544 24.5346C23.5766 24.5346 23.7802 24.4338 23.913 24.258C23.9283 24.2379 23.9525 24.2258 23.978 24.2258C24.0033 24.2258 24.0276 24.2378 24.0427 24.258C24.1756 24.4338 24.3794 24.5346 24.6015 24.5346C24.8237 24.5346 25.0273 24.4338 25.1601 24.258C25.1753 24.2378 25.1996 24.2258 25.2249 24.2258C25.2503 24.2258 25.2745 24.2378 25.2898 24.258C25.4227 24.4337 25.6262 24.5346 25.8484 24.5346C26.0706 24.5346 26.2742 24.4338 26.4071 24.258C26.4224 24.2378 26.4465 24.2258 26.472 24.2258C26.4973 24.2258 26.5215 24.2378 26.5368 24.258C26.6696 24.4337 26.8733 24.5346 27.0955 24.5346C27.3175 24.5346 27.5212 24.4338 27.654 24.258C27.6693 24.2378 27.6936 24.2258 27.7189 24.2258C27.7443 24.2258 27.7686 24.2378 27.7838 24.258C27.9167 24.4337 28.1204 24.5346 28.3424 24.5346C28.5646 24.5346 28.7682 24.4338 28.901 24.258C28.9163 24.2378 28.9405 24.2258 28.9659 24.2258C28.9912 24.2258 29.0155 24.2378 29.0308 24.258C29.1637 24.4337 29.3672 24.5346 29.5895 24.5346C29.8116 24.5346 30.0152 24.4338 30.1481 24.258C30.1633 24.2378 30.1875 24.2258 30.2129 24.2258C30.2383 24.2258 30.2625 24.2378 30.2778 24.258C30.4107 24.4337 30.6143 24.5346 30.8364 24.5346C31.2195 24.5346 31.5313 24.2299 31.5313 23.8555V22.7976C31.5312 21.4307 30.4103 20.3185 29.0326 20.3185Z" fill="#F6B142"/>
<path d="M10.5811 26.329H21.2927C21.6321 26.1013 21.8553 25.7159 21.8553 25.2786C21.8553 24.9989 21.7629 24.7412 21.6081 24.5316C21.5883 24.5332 21.5685 24.5345 21.5483 24.5345C21.3262 24.5345 21.1225 24.4337 20.9897 24.2579C20.9745 24.2378 20.9503 24.2257 20.9248 24.2257C20.8995 24.2257 20.8752 24.2377 20.86 24.2579C20.7271 24.4337 20.5235 24.5345 20.3013 24.5345C20.0791 24.5345 19.8755 24.4337 19.7427 24.2579C19.7275 24.2378 19.7031 24.2257 19.6778 24.2257C19.6525 24.2257 19.6281 24.2377 19.613 24.2579C19.48 24.4337 19.2765 24.5345 19.0542 24.5345C18.8322 24.5345 18.6286 24.4337 18.4956 24.2579C18.4804 24.2378 18.4562 24.2257 18.4308 24.2257C18.4054 24.2257 18.3811 24.2377 18.3659 24.2579C18.233 24.4337 18.0293 24.5345 17.8072 24.5345C17.585 24.5345 17.3814 24.4337 17.2486 24.2579C17.2334 24.2378 17.2091 24.2257 17.1837 24.2257C17.1585 24.2257 17.1342 24.2377 17.119 24.2579C16.986 24.4337 16.7825 24.5345 16.5603 24.5345C16.338 24.5345 16.1345 24.4337 16.0017 24.2579C15.9864 24.2378 15.9622 24.2257 15.9368 24.2257C15.9115 24.2257 15.8873 24.2377 15.872 24.2579C15.7392 24.4337 15.5355 24.5345 15.3134 24.5345C15.0912 24.5345 14.8875 24.4337 14.7547 24.2579C14.7396 24.2378 14.7152 24.2257 14.6899 24.2257C14.6645 24.2257 14.6402 24.2378 14.625 24.258C14.4922 24.4336 14.2886 24.5345 14.0664 24.5345C13.8443 24.5345 13.6406 24.4337 13.5078 24.2579C13.4925 24.2378 13.4682 24.2257 13.4429 24.2257C13.4175 24.2257 13.3932 24.2377 13.3781 24.2579C13.2451 24.4337 13.0415 24.5345 12.8194 24.5345C12.5973 24.5345 12.3937 24.4337 12.2607 24.2579C12.2455 24.2378 12.2212 24.2257 12.1959 24.2257C12.1705 24.2257 12.1462 24.2377 12.131 24.2579C11.9982 24.4337 11.7945 24.5345 11.5724 24.5345C11.3503 24.5345 11.1466 24.4337 11.0138 24.2579C10.9986 24.2378 10.9742 24.2257 10.9489 24.2257C10.9235 24.2257 10.8993 24.2377 10.8841 24.2579C10.7511 24.4337 10.5476 24.5345 10.3255 24.5345C10.3054 24.5345 10.2855 24.5332 10.2658 24.5316C10.111 24.7412 10.0186 24.9989 10.0186 25.2786C10.0185 25.7158 10.2416 26.1013 10.5811 26.329Z" fill="#FEFBF7"/>
<path opacity="0.1" d="M11.7302 25.2786C11.7302 24.8572 11.9384 24.4849 12.2575 24.2546C12.2422 24.2366 12.2196 24.2257 12.1959 24.2257C12.1706 24.2257 12.1462 24.2377 12.1311 24.2579C11.9982 24.4337 11.7945 24.5345 11.5724 24.5345C11.3503 24.5345 11.1466 24.4337 11.0138 24.2579C10.9986 24.2378 10.9742 24.2257 10.9489 24.2257C10.9235 24.2257 10.8993 24.2377 10.8841 24.2579C10.7511 24.4337 10.5476 24.5345 10.3255 24.5345C10.3054 24.5345 10.2855 24.5332 10.2658 24.5316C10.111 24.7412 10.0186 24.9989 10.0186 25.2787C10.0186 25.7159 10.2417 26.1013 10.5812 26.329H12.293C11.9534 26.1012 11.7302 25.7158 11.7302 25.2786Z" fill="black"/>
<path d="M22.0435 26.329C22.154 26.329 22.2436 26.4177 22.2436 26.5271V27.0486C22.2436 28.4386 21.1011 29.5696 19.6968 29.5696H12.1777C10.7733 29.5696 9.63086 28.4386 9.63086 27.0486V26.5271C9.63086 26.4177 9.72048 26.329 9.83098 26.329H22.0435Z" fill="#FBE24F"/>
<path d="M21.5486 24.5345C21.3265 24.5345 21.1228 24.4337 20.99 24.2579C20.9748 24.2378 20.9506 24.2257 20.9252 24.2257C20.8998 24.2257 20.8755 24.2377 20.8603 24.2579C20.7275 24.4337 20.5238 24.5345 20.3017 24.5345C20.0795 24.5345 19.8758 24.4337 19.743 24.2579C19.7278 24.2378 19.7035 24.2257 19.6782 24.2257C19.6528 24.2257 19.6285 24.2377 19.6133 24.2579C19.4803 24.4337 19.2768 24.5345 19.0545 24.5345C18.8325 24.5345 18.6289 24.4337 18.4959 24.2579C18.4807 24.2378 18.4565 24.2257 18.4311 24.2257C18.4057 24.2257 18.3814 24.2377 18.3662 24.2579C18.2333 24.4337 18.0297 24.5345 17.8075 24.5345C17.5853 24.5345 17.3817 24.4337 17.2489 24.2579C17.2337 24.2378 17.2094 24.2257 17.184 24.2257C17.1588 24.2257 17.1345 24.2377 17.1193 24.2579C16.9863 24.4337 16.7828 24.5345 16.5607 24.5345C16.3383 24.5345 16.1348 24.4337 16.002 24.2579C15.9867 24.2378 15.9625 24.2257 15.9372 24.2257C15.9118 24.2257 15.8876 24.2377 15.8723 24.2579C15.7395 24.4337 15.5358 24.5345 15.3137 24.5345C15.0915 24.5345 14.8878 24.4337 14.755 24.2579C14.7399 24.2378 14.7155 24.2257 14.6902 24.2257C14.6649 24.2257 14.6405 24.2378 14.6253 24.258C14.4925 24.4337 14.2889 24.5345 14.0667 24.5345C13.8446 24.5345 13.6409 24.4337 13.5081 24.2579C13.4928 24.2378 13.4685 24.2257 13.4432 24.2257C13.4178 24.2257 13.3935 24.2377 13.3784 24.2579C13.2454 24.4337 13.0418 24.5345 12.8197 24.5345C12.5976 24.5345 12.394 24.4337 12.261 24.2579C12.2458 24.2378 12.2215 24.2257 12.1962 24.2257C12.1709 24.2257 12.1465 24.2377 12.1314 24.2579C11.9985 24.4337 11.7948 24.5345 11.5727 24.5345C11.3506 24.5345 11.1469 24.4337 11.0141 24.2579C10.9989 24.2378 10.9745 24.2257 10.9492 24.2257C10.9238 24.2257 10.8996 24.2377 10.8844 24.2579C10.7514 24.4337 10.5479 24.5345 10.3258 24.5345C9.94261 24.5345 9.63086 24.2298 9.63086 23.8553V22.7975C9.63086 21.4307 10.7517 20.3185 12.1294 20.3185H19.7451C21.1228 20.3185 22.2436 21.4307 22.2436 22.7975L22.2437 23.8553C22.2436 24.2298 21.9318 24.5345 21.5486 24.5345Z" fill="#FBE24F"/>
<path d="M16.2205 3.04776H15.7412C15.4823 3.04776 15.2725 3.25763 15.2725 3.51651C15.2725 3.77538 15.4823 3.98526 15.7412 3.98526H16.2205C16.4794 3.98526 16.6892 3.77538 16.6892 3.51651C16.6892 3.25763 16.4794 3.04776 16.2205 3.04776Z" fill="black"/>
<path d="M11.9072 3.76083C11.6483 3.76083 11.4385 3.97071 11.4385 4.22958C11.4385 4.48845 11.6483 4.69833 11.9072 4.69833H12.3864C12.6453 4.69833 12.8552 4.48845 12.8552 4.22958C12.8552 3.97071 12.6453 3.76083 12.3864 3.76083H11.9072Z" fill="black"/>
<path d="M19.6227 4.69833C19.8817 4.69833 20.0915 4.48845 20.0915 4.22958C20.0915 3.97071 19.8817 3.76083 19.6227 3.76083H19.1436C18.8846 3.76083 18.6748 3.97071 18.6748 4.22958C18.6748 4.48845 18.8846 4.69833 19.1436 4.69833H19.6227Z" fill="black"/>
<path d="M17.1309 5.60147H17.6101C17.869 5.60147 18.0789 5.39159 18.0789 5.13272C18.0789 4.87385 17.869 4.66397 17.6101 4.66397H17.1309C16.8719 4.66397 16.6621 4.87385 16.6621 5.13272C16.6621 5.39159 16.8719 5.60147 17.1309 5.60147Z" fill="black"/>
<path d="M13.6431 5.13272C13.6431 5.39159 13.8529 5.60147 14.1118 5.60147H14.591C14.8499 5.60147 15.0598 5.39159 15.0598 5.13272C15.0598 4.87385 14.8499 4.66397 14.591 4.66397H14.1118C13.8529 4.66397 13.6431 4.87385 13.6431 5.13272Z" fill="black"/>
<path d="M12.3864 8.99002H11.9072C11.6483 8.99002 11.4385 9.1999 11.4385 9.45877C11.4385 9.71764 11.6483 9.92752 11.9072 9.92752H12.3864C12.6453 9.92752 12.8552 9.71764 12.8552 9.45877C12.8552 9.1999 12.6453 8.99002 12.3864 8.99002Z" fill="black"/>
<path d="M19.1436 9.92752H19.6227C19.8817 9.92752 20.0915 9.71764 20.0915 9.45877C20.0915 9.1999 19.8817 8.99002 19.6227 8.99002H19.1436C18.8846 8.99002 18.6748 9.1999 18.6748 9.45877C18.6748 9.71764 18.8846 9.92752 19.1436 9.92752Z" fill="black"/>
<path d="M17.1309 10.8307H17.6101C17.869 10.8307 18.0789 10.6209 18.0789 10.362C18.0789 10.1031 17.869 9.89325 17.6101 9.89325H17.1309C16.8719 9.89325 16.6621 10.1031 16.6621 10.362C16.6621 10.6209 16.8719 10.8307 17.1309 10.8307Z" fill="black"/>
<path d="M14.591 9.89325H14.1118C13.8529 9.89325 13.6431 10.1031 13.6431 10.362C13.6431 10.6209 13.8529 10.8307 14.1118 10.8307H14.591C14.8499 10.8307 15.0598 10.6209 15.0598 10.362C15.0598 10.1031 14.8499 9.89325 14.591 9.89325Z" fill="black"/>
<path d="M31.9999 23.8554V22.7976C31.9999 21.1722 30.6688 19.8498 29.0326 19.8498H27.2691C27.6096 19.3659 27.81 18.7785 27.81 18.1451V17.6236C27.81 17.3147 27.5979 17.055 27.3114 16.9796C27.3822 16.7911 27.4221 16.5879 27.4221 16.3753C27.4221 16.1986 27.3951 16.0281 27.3454 15.8675C27.6268 15.6578 27.8099 15.326 27.8099 14.952L27.8099 13.8942C27.8099 12.2688 26.4788 10.9465 24.8426 10.9465C24.5837 10.9465 24.3739 11.1563 24.3739 11.4152C24.3739 11.6741 24.5837 11.884 24.8426 11.884C25.9618 11.884 26.8724 12.7858 26.8724 13.8943L26.8724 14.9521C26.8724 15.068 26.771 15.1624 26.6463 15.1624C26.5714 15.1624 26.5058 15.1302 26.4614 15.0715C26.358 14.9351 26.1941 14.8536 26.0229 14.8536C25.8513 14.8536 25.6871 14.9353 25.5841 15.0718C25.54 15.1302 25.4743 15.1624 25.3993 15.1624C25.3243 15.1624 25.2588 15.1303 25.2144 15.0715C25.111 14.9351 24.9471 14.8536 24.7758 14.8536C24.6038 14.8536 24.4395 14.9356 24.3371 15.0717C24.293 15.1301 24.2273 15.1623 24.1523 15.1623C24.0773 15.1623 24.0116 15.1301 23.9678 15.0722C23.8646 14.9353 23.7004 14.8536 23.5288 14.8536C23.3571 14.8536 23.193 14.9353 23.09 15.0719C23.0459 15.1302 22.9803 15.1623 22.9053 15.1623C22.8303 15.1623 22.7647 15.1302 22.7199 15.071C22.6165 14.9349 22.4528 14.8537 22.2818 14.8537C22.1105 14.8537 21.9466 14.9351 21.8429 15.072C21.7989 15.1303 21.7333 15.1624 21.6583 15.1624C21.5833 15.1624 21.5177 15.1303 21.4733 15.0715C21.37 14.9351 21.2061 14.8536 21.0348 14.8536C20.8632 14.8536 20.699 14.9353 20.596 15.0719C20.552 15.1302 20.4863 15.1623 20.4113 15.1623C20.3363 15.1623 20.2706 15.1301 20.2268 15.0722C20.1236 14.9354 19.9595 14.8537 19.7878 14.8537C19.6162 14.8537 19.4521 14.9355 19.3491 15.0719C19.305 15.1302 19.2393 15.1623 19.1643 15.1623C19.0893 15.1623 19.0237 15.1302 18.9799 15.0722C18.8766 14.9353 18.7125 14.8536 18.5409 14.8536C18.5127 14.8536 18.4849 14.8566 18.4573 14.8609L18.4573 13.8941C18.4573 13.1177 18.153 12.411 17.6574 11.8839H22.9373C23.1963 11.8839 23.4061 11.674 23.4061 11.4152C23.4061 11.1563 23.1963 10.9464 22.9373 10.9464H22.1751C22.5515 10.4478 22.7751 9.82965 22.7751 9.16034V8.63891C22.7751 8.32997 22.5629 8.07016 22.2765 7.99478C22.3472 7.80641 22.3871 7.6031 22.3871 7.39047C22.3871 7.21385 22.3601 7.04341 22.3104 6.88279C22.592 6.6731 22.7751 6.34129 22.7751 5.96729V4.90941C22.7751 3.28404 21.4439 1.96167 19.8077 1.96167H12.192C10.5559 1.96167 9.2248 3.28404 9.2248 4.90941V5.96722C9.2248 6.34122 9.40792 6.67304 9.68948 6.88272C9.63979 7.04335 9.61279 7.21379 9.61279 7.39041C9.61279 7.60303 9.65267 7.80635 9.72342 7.99472C9.43698 8.0701 9.2248 8.32991 9.2248 8.63891V9.16034C9.2248 9.82965 9.44836 10.4478 9.82479 10.9464H7.87449C6.2383 10.9464 4.90718 12.2688 4.90718 13.8941V14.952C4.90718 15.326 5.0903 15.6578 5.3718 15.8675C5.32211 16.0281 5.29511 16.1985 5.29511 16.3753C5.29511 16.588 5.33499 16.7912 5.40574 16.9796C5.1193 17.055 4.90718 17.3147 4.90718 17.6236V18.1451C4.90718 18.7786 5.10761 19.366 5.44799 19.8498H2.96724C1.33112 19.8498 0 21.1721 0 22.7976V23.8554C0 24.2294 0.183125 24.5612 0.464624 24.7709C0.414937 24.9316 0.387937 25.1019 0.387937 25.2786C0.387937 25.4913 0.427812 25.6946 0.498562 25.8829C0.212125 25.9584 0 26.2181 0 26.5271V27.0486C0 28.6971 1.35281 30.0383 3.01556 30.0383H10.5346C10.8195 30.0383 11.095 29.9984 11.3564 29.9247C11.6177 29.9982 11.893 30.0383 12.1777 30.0383H19.6968C20.0048 30.0383 20.302 29.9921 20.582 29.9067C20.8615 29.992 21.158 30.0383 21.4654 30.0383H28.9845C30.6473 30.0383 32 28.6971 32 27.0486V26.5271C32 26.2182 31.7879 25.9584 31.5014 25.883C31.5722 25.6946 31.6121 25.4913 31.6121 25.2787C31.6121 25.102 31.5851 24.9316 31.5354 24.7709C31.8168 24.5611 31.9999 24.2294 31.9999 23.8554ZM18.0455 16.0923C18.2238 16.0732 18.3925 16.0151 18.5409 15.9217C18.7243 16.0372 18.9387 16.0998 19.1645 16.0998C19.3902 16.0998 19.6046 16.0373 19.788 15.9217C19.9714 16.0372 20.1858 16.0998 20.4115 16.0998C20.6373 16.0998 20.8516 16.0373 21.0351 15.9217C21.2185 16.0372 21.4328 16.0998 21.6586 16.0998C21.8845 16.0998 22.0989 16.0372 22.2822 15.9218C22.4655 16.0372 22.6799 16.0998 22.9056 16.0998C23.1314 16.0998 23.3458 16.0372 23.5291 15.9217C23.7126 16.0372 23.927 16.0998 24.1528 16.0998C24.3783 16.0998 24.5926 16.0373 24.7761 15.9216C24.9595 16.0371 25.1739 16.0998 25.3998 16.0998C25.6254 16.0998 25.8398 16.0372 26.0233 15.9217C26.1458 15.9988 26.2823 16.0518 26.4266 16.0788C26.4639 16.1706 26.485 16.2705 26.485 16.3752C26.485 16.6046 26.3859 16.8111 26.2286 16.9568H17.9678C18.0332 16.7749 18.0695 16.5793 18.0695 16.3752C18.0695 16.2788 18.0608 16.1845 18.0455 16.0923ZM18.4574 18.1451V17.8943H26.8726V18.1451C26.8726 18.8546 26.506 19.4811 25.9501 19.8498H21.417C21.1266 19.8498 20.846 19.8918 20.5806 19.9696C20.3154 19.8921 20.0351 19.8498 19.745 19.8498H17.9165C18.257 19.3659 18.4574 18.7785 18.4574 18.1451ZM10.1624 5.60148H10.4697C10.7287 5.60148 10.9385 5.3916 10.9385 5.13273C10.9385 4.87385 10.7287 4.66398 10.4697 4.66398H10.178C10.3007 3.67092 11.1568 2.89917 12.1921 2.89917H19.8078C20.8431 2.89917 21.6993 3.67098 21.822 4.66398H21.4918C21.2328 4.66398 21.023 4.87385 21.023 5.13273C21.023 5.3916 21.2328 5.60148 21.4918 5.60148H21.8377V5.96722C21.8377 6.08322 21.7363 6.1776 21.6116 6.1776C21.5366 6.1776 21.471 6.14547 21.427 6.08729C21.3237 5.95047 21.1596 5.86879 20.988 5.86879C20.8165 5.86879 20.6525 5.95047 20.5493 6.08697C20.5051 6.14541 20.4395 6.1776 20.3646 6.1776C20.2896 6.1776 20.224 6.14541 20.18 6.08729C20.0767 5.95047 19.9126 5.86879 19.7411 5.86879C19.5696 5.86879 19.4055 5.95047 19.3023 6.08704C19.2582 6.14541 19.1925 6.17754 19.1175 6.17754C19.0426 6.17754 18.977 6.14541 18.934 6.08866C18.8309 5.95097 18.6664 5.86873 18.4941 5.86873C18.3226 5.86873 18.1585 5.95041 18.0553 6.08691C18.0112 6.14535 17.9455 6.17754 17.8706 6.17754C17.7955 6.17754 17.7299 6.14541 17.6859 6.08722C17.5827 5.95041 17.4185 5.86873 17.247 5.86873C17.0752 5.86873 16.9108 5.95066 16.8083 6.08691C16.7642 6.14535 16.6985 6.17754 16.6235 6.17754C16.5485 6.17754 16.4829 6.14541 16.4395 6.08791C16.3363 5.95066 16.172 5.86873 16.0001 5.86873C15.8282 5.86873 15.6639 5.95066 15.5613 6.08704C15.5172 6.14541 15.4516 6.17747 15.3765 6.17747C15.3015 6.17747 15.2359 6.14535 15.193 6.0886C15.0898 5.95091 14.9254 5.86866 14.7531 5.86866C14.5811 5.86866 14.4168 5.9506 14.3143 6.08691C14.2702 6.14529 14.2045 6.17741 14.1295 6.17741C14.0546 6.17741 13.989 6.14529 13.945 6.0871C13.8417 5.95029 13.6776 5.8686 13.5061 5.8686C13.3338 5.8686 13.1693 5.95079 13.0674 6.08685C13.0232 6.14522 12.9576 6.17735 12.8825 6.17735C12.8076 6.17735 12.742 6.14522 12.698 6.08704C12.5948 5.95022 12.4307 5.86854 12.2592 5.86854C12.0872 5.86854 11.9229 5.95047 11.8204 6.08672C11.7762 6.14516 11.7106 6.17735 11.6356 6.17735C11.5607 6.17735 11.4951 6.14522 11.4506 6.08629C11.3472 5.94991 11.1832 5.86854 11.012 5.86854C10.8405 5.86854 10.6765 5.95022 10.5733 6.08679C10.5292 6.14516 10.4635 6.17729 10.3885 6.17729C10.2639 6.17729 10.1624 6.08291 10.1624 5.96691L10.1624 5.60148ZM21.4496 7.39041C21.4496 7.61978 21.3505 7.82628 21.1931 7.97203H10.8067C10.6494 7.82628 10.5503 7.61978 10.5503 7.39041C10.5503 7.28566 10.5714 7.18585 10.6087 7.0941C10.753 7.06703 10.8895 7.0141 11.0119 6.93697C11.1953 7.05247 11.4097 7.1151 11.6355 7.1151C11.861 7.1151 12.0754 7.05254 12.2589 6.93691C12.4423 7.05247 12.6567 7.1151 12.8825 7.1151C13.108 7.1151 13.3223 7.0526 13.5059 6.93691C13.6893 7.05247 13.9037 7.1151 14.1295 7.1151C14.3551 7.1151 14.5695 7.05254 14.753 6.93691C14.9364 7.05241 15.1508 7.1151 15.3766 7.1151C15.6023 7.1151 15.8166 7.05254 16.0001 6.93697C16.1835 7.05247 16.3978 7.1151 16.6237 7.1151C16.8492 7.1151 17.0635 7.05254 17.247 6.93691C17.4305 7.05241 17.6449 7.1151 17.8707 7.1151C18.0963 7.1151 18.3107 7.05247 18.4942 6.93697C18.6775 7.05247 18.8919 7.1151 19.1177 7.1151C19.3434 7.1151 19.5578 7.05247 19.7412 6.93691C19.9246 7.05241 20.139 7.1151 20.3648 7.1151C20.5904 7.1151 20.8048 7.05247 20.9882 6.93691C21.1107 7.01404 21.2473 7.06703 21.3915 7.0941C21.4285 7.18585 21.4496 7.28566 21.4496 7.39041ZM10.1624 8.90953H21.8376V9.16034C21.8376 9.41853 21.7886 9.66547 21.7001 9.89328H21.2521C20.9931 9.89328 20.7833 10.1032 20.7833 10.362C20.7833 10.543 20.8861 10.6998 21.0363 10.7779C20.9558 10.84 20.8706 10.8964 20.7813 10.9464H17.2272C16.9253 10.9464 16.6339 10.9918 16.3593 11.0757C16.0843 10.9918 15.7925 10.9464 15.4902 10.9464H11.2187C11.152 10.909 11.0875 10.8682 11.0257 10.824C11.248 10.7873 11.4177 10.5947 11.4177 10.362C11.4177 10.1032 11.2079 9.89328 10.9489 9.89328H10.4697C10.4139 9.89328 10.3607 9.90353 10.311 9.9214C10.2155 9.6859 10.1623 9.42922 10.1623 9.16041V8.90953H10.1624ZM5.84474 13.8941C5.84474 12.7857 6.7553 11.8839 7.87455 11.8839H15.4902C16.6093 11.8839 17.52 12.7857 17.52 13.8942L17.52 14.952C17.52 15.068 17.4185 15.1623 17.2938 15.1623C17.2189 15.1623 17.1533 15.1302 17.1084 15.0708C17.005 14.9348 16.8413 14.8536 16.6704 14.8536C16.4987 14.8536 16.3346 14.9353 16.2316 15.0718C16.1875 15.1301 16.1219 15.1623 16.0469 15.1623C15.972 15.1623 15.9063 15.1301 15.8625 15.0721C15.7593 14.9353 15.5951 14.8535 15.4234 14.8535C15.2514 14.8535 15.0871 14.9355 14.9848 15.0716C14.9406 15.13 14.8749 15.1622 14.8 15.1622C14.725 15.1622 14.6593 15.1301 14.615 15.0713C14.5117 14.9349 14.3477 14.8535 14.1763 14.8535C14.0048 14.8535 13.8407 14.9352 13.7377 15.0716C13.6935 15.13 13.6278 15.1622 13.5528 15.1622C13.4778 15.1622 13.4123 15.1301 13.368 15.0715C13.2647 14.935 13.1008 14.8536 12.9294 14.8536C12.7585 14.8536 12.5948 14.9347 12.4904 15.072C12.4465 15.1302 12.3809 15.1623 12.3059 15.1623C12.2309 15.1623 12.1654 15.1302 12.1204 15.0707C12.017 14.9348 11.8533 14.8536 11.6824 14.8536C11.5104 14.8536 11.346 14.9356 11.2437 15.0718C11.1995 15.1301 11.1339 15.1623 11.0588 15.1623C10.9839 15.1623 10.9182 15.1301 10.8744 15.0722C10.7711 14.9354 10.607 14.8537 10.4354 14.8537C10.2637 14.8537 10.0996 14.9355 9.99654 15.072C9.95248 15.1303 9.88692 15.1623 9.81186 15.1623C9.73692 15.1623 9.67129 15.1302 9.62692 15.0715C9.52361 14.935 9.35967 14.8536 9.18836 14.8536C9.0163 14.8536 8.85198 14.9356 8.74961 15.0718C8.70548 15.1301 8.63986 15.1623 8.56486 15.1623C8.48986 15.1623 8.42423 15.1302 8.37986 15.0715C8.27655 14.935 8.11255 14.8536 7.94123 14.8536C7.77005 14.8536 7.60611 14.935 7.50242 15.0718C7.45836 15.1301 7.3928 15.1623 7.3178 15.1623C7.2428 15.1623 7.17717 15.1301 7.13336 15.0721C7.03005 14.9353 6.86592 14.8536 6.6943 14.8536C6.52268 14.8536 6.35855 14.9353 6.25549 15.0718C6.21143 15.1301 6.1458 15.1623 6.0708 15.1623C5.94611 15.1623 5.84468 15.0679 5.84468 14.952V13.8941H5.84474ZM6.48905 16.9568C6.33161 16.8111 6.23261 16.6046 6.23261 16.3752C6.23261 16.2705 6.25374 16.1706 6.29105 16.0788C6.43536 16.0518 6.5718 15.9989 6.6943 15.9217C6.87767 16.0372 7.09205 16.0998 7.31786 16.0998C7.54367 16.0998 7.75805 16.0372 7.94136 15.9218C8.12473 16.0372 8.33911 16.0998 8.56492 16.0998C8.79048 16.0998 9.0048 16.0373 9.1883 15.9216C9.37173 16.0371 9.58611 16.0998 9.81192 16.0998C10.0377 16.0998 10.252 16.0373 10.4355 15.9217C10.6189 16.0372 10.8332 16.0998 11.0589 16.0998C11.2846 16.0998 11.4989 16.0373 11.6824 15.9217C11.8657 16.0372 12.0802 16.0998 12.306 16.0998C12.5319 16.0998 12.7465 16.0371 12.9297 15.9218C13.113 16.0373 13.3273 16.0998 13.553 16.0998C13.7788 16.0998 13.9931 16.0373 14.1765 15.9217C14.36 16.0372 14.5743 16.0998 14.8002 16.0998C15.0257 16.0998 15.24 16.0373 15.4235 15.9216C15.6069 16.0372 15.8213 16.0998 16.0472 16.0998C16.2728 16.0998 16.4873 16.0372 16.6707 15.9217C16.7932 15.9988 16.9297 16.0518 17.074 16.0788C17.1113 16.1706 17.1324 16.2705 17.1324 16.3752C17.1324 16.6046 17.0333 16.8111 16.876 16.9568H6.48905ZM5.84474 17.8943H17.52V18.1451C17.52 18.8547 17.1534 19.4811 16.5975 19.8498H12.1294C11.8619 19.8498 11.6028 19.8858 11.356 19.952C11.1095 19.8856 10.8504 19.8498 10.5829 19.8498H6.76717C6.2113 19.4811 5.84474 18.8546 5.84474 18.1451V17.8943ZM0.937498 22.7976C0.937498 21.6891 1.848 20.7873 2.96724 20.7873H9.96198C9.46636 21.3144 9.16211 22.0211 9.16211 22.7976V23.7684C9.03104 23.7947 8.91155 23.8675 8.83023 23.9753C8.78611 24.0337 8.72055 24.0658 8.64555 24.0658C8.57061 24.0658 8.50498 24.0336 8.46067 23.9751C8.35736 23.8386 8.19342 23.7571 8.02211 23.7571C7.85042 23.7571 7.6863 23.8388 7.58324 23.9754C7.53917 24.0338 7.47361 24.0658 7.39861 24.0658C7.32361 24.0658 7.25805 24.0337 7.21411 23.9756C7.11086 23.8388 6.94674 23.757 6.77517 23.757C6.60317 23.757 6.43886 23.839 6.33649 23.9751C6.2923 24.0336 6.22661 24.0658 6.15161 24.0658C6.07661 24.0658 6.01105 24.0336 5.96655 23.9748C5.8633 23.8384 5.69936 23.7571 5.52805 23.7571C5.35643 23.7571 5.19237 23.8388 5.0893 23.9753C5.04518 24.0336 4.97955 24.0658 4.90449 24.0658C4.82955 24.0658 4.76405 24.0336 4.71955 23.9748C4.61624 23.8384 4.4523 23.757 4.28105 23.757C4.10943 23.757 3.94531 23.8387 3.84224 23.9753C3.79812 24.0336 3.73256 24.0658 3.65756 24.0658C3.58262 24.0658 3.51712 24.0336 3.47206 23.9741C3.36868 23.8381 3.20493 23.7569 3.03399 23.7569C2.86281 23.7569 2.69893 23.8384 2.59518 23.9752C2.55106 24.0336 2.4855 24.0657 2.41056 24.0657C2.33562 24.0657 2.27 24.0335 2.2255 23.9748C2.12218 23.8383 1.95825 23.7569 1.787 23.7569C1.61543 23.7569 1.45131 23.8386 1.34818 23.9752C1.30406 24.0336 1.2385 24.0657 1.1635 24.0657C1.03881 24.0657 0.937373 23.9713 0.937373 23.8553V22.7976H0.937498ZM9.65179 25.8603H1.58181C1.42443 25.7145 1.32544 25.508 1.32544 25.2786C1.32544 25.1739 1.3465 25.0741 1.38381 24.9823C1.52818 24.9552 1.66462 24.9023 1.78712 24.8251C1.97056 24.9406 2.18493 25.0033 2.41068 25.0033C2.63643 25.0033 2.85087 24.9407 3.03418 24.8252C3.21756 24.9407 3.43187 25.0033 3.65768 25.0033C3.88337 25.0033 4.09774 24.9407 4.28118 24.8252C4.46455 24.9407 4.67893 25.0033 4.90468 25.0033C5.13043 25.0033 5.3448 24.9407 5.52824 24.8252C5.71161 24.9407 5.92605 25.0033 6.1518 25.0033C6.3773 25.0033 6.59161 24.9408 6.77517 24.8251C6.95855 24.9407 7.17299 25.0033 7.39886 25.0033C7.62455 25.0033 7.83898 24.9407 8.02236 24.8252C8.2058 24.9407 8.42011 25.0033 8.64586 25.0033C8.87161 25.0033 9.08598 24.9407 9.26936 24.8251C9.36554 24.8858 9.47048 24.9313 9.58086 24.9614C9.56154 25.0644 9.55042 25.1702 9.55042 25.2786C9.55011 25.4827 9.58636 25.6783 9.65179 25.8603ZM3.01556 29.1007C1.86968 29.1007 0.937498 28.1801 0.937498 27.0485V26.7977H9.16211V27.0485C9.16211 27.8426 9.47661 28.5648 9.98786 29.1007H3.01556ZM21.7748 27.0485C21.7748 28.1801 20.8426 29.1007 19.6968 29.1007H12.1777C11.0319 29.1007 10.0996 28.1801 10.0996 27.0485V26.7977H21.7749L21.7748 27.0485ZM10.4876 25.2786C10.4876 25.1739 10.5087 25.0741 10.546 24.9823C10.6902 24.9552 10.8267 24.9023 10.9492 24.8251C11.1326 24.9406 11.347 25.0033 11.5728 25.0033C11.7986 25.0033 12.0129 24.9407 12.1964 24.8252C12.3797 24.9407 12.5941 25.0033 12.8198 25.0033C13.0454 25.0033 13.2597 24.9408 13.4432 24.8251C13.6267 24.9406 13.841 25.0033 14.0669 25.0033C14.2926 25.0033 14.507 24.9407 14.6904 24.8252C14.8738 24.9407 15.0882 25.0033 15.3139 25.0033C15.5397 25.0033 15.7542 24.9407 15.9375 24.8253C16.1209 24.9407 16.3353 25.0033 16.561 25.0033C16.7866 25.0033 17.001 24.9408 17.1844 24.8251C17.3678 24.9406 17.5822 25.0033 17.808 25.0033C18.0337 25.0033 18.2481 24.9407 18.4315 24.8251C18.615 24.9406 18.8293 25.0033 19.055 25.0033C19.2808 25.0033 19.4951 24.9407 19.6786 24.8251C19.862 24.9406 20.0763 25.0033 20.3021 25.0033C20.528 25.0033 20.7424 24.9407 20.9257 24.8253C21.0481 24.9024 21.1847 24.9553 21.329 24.9824C21.3663 25.0741 21.3874 25.1739 21.3874 25.2787C21.3874 25.5081 21.2884 25.7146 21.131 25.8603H19.119H12.8819H10.7444C10.5866 25.7145 10.4876 25.508 10.4876 25.2786ZM21.5486 24.0658C21.4737 24.0658 21.4081 24.0337 21.3636 23.9749C21.2603 23.8384 21.0964 23.7571 20.9251 23.7571C20.7539 23.7571 20.59 23.8385 20.4863 23.9754C20.4422 24.0338 20.3766 24.0658 20.3017 24.0658C20.2268 24.0658 20.1612 24.0337 20.1167 23.9749C20.0134 23.8384 19.8495 23.7571 19.6782 23.7571C19.5066 23.7571 19.3425 23.8388 19.2394 23.9753C19.1952 24.0337 19.1296 24.0659 19.0546 24.0659C18.9797 24.0659 18.9141 24.0337 18.8702 23.9756C18.7669 23.8388 18.6028 23.7571 18.4312 23.7571C18.2596 23.7571 18.0954 23.8388 17.9924 23.9753C17.9483 24.0337 17.8827 24.0658 17.8077 24.0658C17.7327 24.0658 17.6672 24.0337 17.6228 23.9751C17.5195 23.8386 17.3555 23.7571 17.1842 23.7571C17.0126 23.7571 16.8485 23.8388 16.7455 23.9751C16.7013 24.0336 16.6357 24.0658 16.5607 24.0658C16.4857 24.0658 16.4201 24.0337 16.3756 23.9749C16.2723 23.8384 16.1084 23.7571 15.9372 23.7571C15.7659 23.7571 15.6021 23.8385 15.4983 23.9753C15.4542 24.0337 15.3886 24.0658 15.3136 24.0658C15.2386 24.0658 15.173 24.0337 15.1297 23.9763C15.0265 23.839 14.8622 23.7571 14.6902 23.7571C14.5185 23.7571 14.3544 23.8388 14.2513 23.9754C14.2073 24.0338 14.1417 24.0658 14.0667 24.0658C13.9918 24.0658 13.9262 24.0337 13.8812 23.9741C13.7778 23.8382 13.6141 23.757 13.4432 23.757C13.2712 23.757 13.1069 23.839 13.0045 23.9751C12.9604 24.0336 12.8946 24.0658 12.8196 24.0658C12.7447 24.0658 12.6791 24.0336 12.6346 23.9748C12.5313 23.8384 12.3674 23.757 12.1962 23.757C12.0245 23.757 11.8604 23.8387 11.7573 23.9753C11.7132 24.0337 11.6477 24.0658 11.5727 24.0658C11.4977 24.0658 11.4322 24.0336 11.3877 23.9748C11.2844 23.8384 11.1204 23.757 10.9491 23.757C10.7775 23.757 10.6135 23.8387 10.5105 23.9751C10.4663 24.0336 10.4006 24.0658 10.3257 24.0658C10.2009 24.0658 10.0995 23.9713 10.0995 23.8553V22.7975C10.0995 21.6891 11.01 20.7873 12.1293 20.7873H19.745C20.8641 20.7873 21.7748 21.6891 21.7748 22.7976L21.7748 23.8553C21.7748 23.9714 21.6734 24.0658 21.5486 24.0658ZM31.0624 27.0485C31.0624 27.3067 31.0134 27.5536 30.9249 27.7814H30.4769C30.2179 27.7814 30.0081 27.9913 30.0081 28.2502C30.0081 28.4312 30.1109 28.5879 30.2611 28.6661C29.9085 28.9381 29.4655 29.1008 28.9844 29.1008H21.8866C22.3979 28.5649 22.7124 27.8427 22.7124 27.0486V26.7977H31.0624V27.0485ZM22.2988 24.9874C22.4537 24.9623 22.6001 24.9074 22.7307 24.8251C22.9141 24.9406 23.1285 25.0033 23.3543 25.0033C23.5801 25.0033 23.7946 24.9407 23.9779 24.8253C24.1613 24.9407 24.3756 25.0033 24.6014 25.0033C24.8271 25.0033 25.0415 24.9407 25.2249 24.8252C25.4083 24.9407 25.6227 25.0033 25.8484 25.0033C26.0741 25.0033 26.2885 24.9407 26.4719 24.8252C26.6553 24.9407 26.8697 25.0033 27.0956 25.0033C27.3213 25.0033 27.5357 24.9407 27.719 24.8252C27.9024 24.9407 28.1167 25.0033 28.3424 25.0033C28.5683 25.0033 28.7829 24.9406 28.9661 24.8253C29.1495 24.9407 29.3639 25.0033 29.5896 25.0033C29.8154 25.0033 30.0298 24.9406 30.2131 24.8252C30.3356 24.9023 30.4721 24.9552 30.6164 24.9823C30.6538 25.0741 30.6748 25.1739 30.6748 25.2786C30.6748 25.508 30.5758 25.7145 30.4184 25.8603H22.2227C22.2881 25.6783 22.3244 25.4827 22.3244 25.2786C22.3244 25.1793 22.315 25.0821 22.2988 24.9874ZM31.0624 23.8554C31.0624 23.9714 30.961 24.0658 30.8363 24.0658C30.7613 24.0658 30.6957 24.0337 30.6517 23.9755C30.5484 23.8388 30.3843 23.7571 30.2128 23.7571C30.0416 23.7571 29.8778 23.8385 29.7741 23.9753C29.7299 24.0337 29.6643 24.0659 29.5894 24.0659C29.5144 24.0659 29.4488 24.0338 29.4048 23.9756C29.3015 23.8388 29.1374 23.7571 28.9658 23.7571C28.7951 23.7571 28.6313 23.8383 28.527 23.9754C28.4829 24.0338 28.4173 24.0659 28.3423 24.0659C28.2674 24.0659 28.2018 24.0338 28.1584 23.9763C28.0551 23.8391 27.8909 23.7571 27.7189 23.7571C27.5478 23.7571 27.3838 23.8386 27.2801 23.9754C27.236 24.0338 27.1704 24.0659 27.0956 24.0659C27.0205 24.0659 26.9549 24.0338 26.9105 23.975C26.8071 23.8386 26.6433 23.7571 26.472 23.7571C26.3005 23.7571 26.1364 23.8388 26.0333 23.9753C25.9891 24.0337 25.9235 24.0659 25.8484 24.0659C25.7735 24.0659 25.7078 24.0338 25.6638 23.9756C25.5606 23.8388 25.3965 23.7571 25.225 23.7571C25.0534 23.7571 24.8893 23.8388 24.7861 23.9754C24.7421 24.0338 24.6765 24.0659 24.6015 24.0659C24.5265 24.0659 24.4609 24.0338 24.4175 23.9764C24.3144 23.8391 24.1501 23.7571 23.9781 23.7571C23.8068 23.7571 23.6429 23.8386 23.5392 23.9754C23.4951 24.0338 23.4296 24.0659 23.3546 24.0659C23.2796 24.0659 23.214 24.0338 23.1706 23.9763C23.0674 23.8391 22.9031 23.7571 22.7312 23.7571C22.725 23.7571 22.7189 23.758 22.7126 23.7583L22.7126 22.7977C22.7126 22.0213 22.4083 21.3145 21.9127 20.7874H29.0329C30.0682 20.7874 30.9244 21.5593 31.0471 22.5523H30.7168C30.4579 22.5523 30.2481 22.7622 30.2481 23.0211C30.2481 23.2799 30.4579 23.4898 30.7168 23.4898H31.0624V23.8554Z" fill="black"/>
<path d="M24.9658 21.8734H25.4449C25.7039 21.8734 25.9137 21.6635 25.9137 21.4047C25.9137 21.1458 25.7039 20.9359 25.4449 20.9359H24.9658C24.7069 20.9359 24.4971 21.1458 24.4971 21.4047C24.4971 21.6635 24.7069 21.8734 24.9658 21.8734Z" fill="black"/>
<path d="M28.3682 22.5864H28.8474C29.1063 22.5864 29.3162 22.3765 29.3162 22.1177C29.3162 21.8588 29.1063 21.6489 28.8474 21.6489H28.3682C28.1093 21.6489 27.8994 21.8588 27.8994 22.1177C27.8994 22.3765 28.1092 22.5864 28.3682 22.5864Z" fill="black"/>
<path d="M26.356 23.4897H26.8352C27.0941 23.4897 27.304 23.2798 27.304 23.021C27.304 22.7621 27.0941 22.5522 26.8352 22.5522H26.356C26.097 22.5522 25.8872 22.7621 25.8872 23.021C25.8872 23.2798 26.0971 23.4897 26.356 23.4897Z" fill="black"/>
<path d="M23.3364 23.4897H23.8157C24.0746 23.4897 24.2844 23.2798 24.2844 23.021C24.2844 22.7621 24.0746 22.5522 23.8157 22.5522H23.3364C23.0775 22.5522 22.8677 22.7621 22.8677 23.021C22.8677 23.2798 23.0775 23.4897 23.3364 23.4897Z" fill="black"/>
<path d="M28.8474 26.8782H28.3682C28.1093 26.8782 27.8994 27.0881 27.8994 27.347C27.8994 27.6058 28.1093 27.8157 28.3682 27.8157H28.8474C29.1063 27.8157 29.3162 27.6058 29.3162 27.347C29.3162 27.0881 29.1063 26.8782 28.8474 26.8782Z" fill="black"/>
<path d="M26.8352 27.7814H26.356C26.097 27.7814 25.8872 27.9913 25.8872 28.2502C25.8872 28.5091 26.097 28.7189 26.356 28.7189H26.8352C27.0941 28.7189 27.304 28.5091 27.304 28.2502C27.304 27.9913 27.0941 27.7814 26.8352 27.7814Z" fill="black"/>
<path d="M23.8157 27.7814H23.3364C23.0775 27.7814 22.8677 27.9913 22.8677 28.2502C22.8677 28.5091 23.0775 28.7189 23.3364 28.7189H23.8157C24.0746 28.7189 24.2844 28.5091 24.2844 28.2502C24.2844 27.9913 24.0745 27.7814 23.8157 27.7814Z" fill="black"/>
</svg>
