<svg width="32" height="32" viewBox="0 0 32 32" fill="none" xmlns="http://www.w3.org/2000/svg">
<g clip-path="url(#clip0)">
<path d="M7.46693 11.2003H24.5334C26.0061 11.2003 27.2001 12.3943 27.2001 13.867C27.2001 15.3397 26.0061 16.5336 24.5334 16.5336H7.46693C5.99421 16.5336 4.80029 15.3397 4.80029 13.867C4.80029 12.3942 5.99421 11.2003 7.46693 11.2003Z" fill="#A2DAE7"/>
<path d="M11.2003 5.867H20.8002C22.273 5.867 23.4669 7.06093 23.4669 8.53364C23.4669 10.0064 22.273 11.2003 20.8002 11.2003H11.2003C9.72761 11.2003 8.53369 10.0064 8.53369 8.53364C8.53369 7.06086 9.72761 5.867 11.2003 5.867Z" fill="#A2DAE7"/>
<path d="M15.8021 2.13367C15.147 2.14594 14.5727 1.69801 14.4251 1.05955C14.3906 0.885954 14.3906 0.707289 14.4251 0.533691H14.4C13.2632 0.520358 12.246 1.23762 11.8768 2.31287C11.392 3.70912 12.1309 5.23404 13.5272 5.7189C13.8079 5.81637 14.1029 5.86644 14.4 5.86697H20.2666C20.2666 3.80512 18.5952 2.13367 16.5333 2.13367H15.8021Z" fill="#A2DAE7"/>
<path d="M7.4668 13.8669H8.53344V14.9335H7.4668V13.8669Z" fill="#FC88A1"/>
<path d="M10.1333 12.8003H11.2V13.867H10.1333V12.8003Z" fill="#FC88A1"/>
<path d="M13.3335 13.8669H14.4002V14.9335H13.3335V13.8669Z" fill="#FC88A1"/>
<path d="M16.5332 12.8003H17.5999V13.867H16.5332V12.8003Z" fill="#FC88A1"/>
<path d="M20.2666 12.8003H21.3333V13.867H20.2666V12.8003Z" fill="#FC88A1"/>
<path d="M22.9331 13.8669H23.9998V14.9335H22.9331V13.8669Z" fill="#FC88A1"/>
<path d="M16.5332 3.20038H17.5999V4.26703H16.5332V3.20038Z" fill="#FC88A1"/>
<path d="M12.2666 7.46701H13.3333V8.53367H12.2666V7.46701Z" fill="#FC88A1"/>
<path d="M14.9336 8.53369H16.0002V9.60035H14.9336V8.53369Z" fill="#FC88A1"/>
<path d="M19.7334 7.46701H20.8001V8.53367H19.7334V7.46701Z" fill="#FC88A1"/>
<path d="M5.33363 16.5336H26.6667C28.1395 16.5336 29.3334 17.7275 29.3334 19.2002C29.3334 20.6729 28.1395 21.8669 26.6667 21.8669H5.33363C3.86091 21.8669 2.66699 20.6729 2.66699 19.2002C2.66699 17.7274 3.86091 16.5336 5.33363 16.5336Z" fill="#FFF3C9"/>
<path d="M26.6668 16.5336H23.9959C21.914 18.796 19.3931 20.6106 16.5869 21.8669H26.6668C28.1395 21.8669 29.3334 20.6729 29.3334 19.2002C29.3334 17.7275 28.1396 16.5336 26.6668 16.5336Z" fill="#FFEAB8"/>
<path d="M24.5332 31.4418H7.46669L3.7334 20.7752C4.49999 19.7534 5.94984 19.5464 6.9717 20.3131C7.05916 20.3787 7.1419 20.4505 7.21923 20.5278L7.46669 20.7752L7.96482 20.2771C8.86801 19.3743 10.332 19.3743 11.2352 20.2771L11.7333 20.7752L12.2314 20.2771C13.1346 19.3743 14.5986 19.3743 15.5018 20.2771L15.9999 20.7752L16.4981 20.2771C17.4013 19.3743 18.8652 19.3743 19.7684 20.2771L20.2666 20.7752L20.7647 20.2771C21.6679 19.3743 23.1319 19.3743 24.0351 20.2771L24.5332 20.7752L24.7806 20.5278C25.6839 19.6244 27.1485 19.6244 28.0518 20.5277C28.1291 20.605 28.2009 20.6878 28.2665 20.7752L24.5332 31.4418Z" fill="#FC88A1"/>
<path d="M28.2663 20.8001C27.5001 19.7783 26.0506 19.5711 25.0288 20.3372C24.941 20.403 24.858 20.475 24.7804 20.5526L24.533 20.8001L24.0349 20.302C23.6744 19.9443 23.2055 19.7164 22.7015 19.654C19.5006 24.7924 14.8813 28.8949 9.40088 31.4667H24.533L28.2663 20.8001Z" fill="#FC7B97"/>
<path d="M16.0001 32C15.7056 32 15.4668 31.7612 15.4668 31.4667V20.8001C15.4668 20.5056 15.7056 20.2668 16.0001 20.2668C16.2947 20.2668 16.5335 20.5056 16.5335 20.8001V31.4667C16.5335 31.7612 16.2947 32 16.0001 32Z" fill="#F04855"/>
<path d="M12.2666 32.0001C11.9821 32.0004 11.7474 31.7775 11.7332 31.4934L11.1999 20.8268C11.1852 20.5323 11.412 20.2816 11.7066 20.2669C12.0011 20.2521 12.2518 20.479 12.2666 20.7735L12.7999 31.4401C12.8149 31.7342 12.5887 31.9849 12.2946 32C12.2941 32 12.2937 32.0001 12.2932 32.0001H12.2666Z" fill="#F04855"/>
<path d="M19.7333 32.0001H19.7066C19.4124 31.9857 19.1855 31.7356 19.1999 31.4414C19.1999 31.4409 19.1999 31.4405 19.1999 31.4401L19.7333 20.7735C19.748 20.479 19.9987 20.2521 20.2933 20.2669C20.5878 20.2816 20.8146 20.5323 20.7999 20.8268L20.2666 31.4934C20.2524 31.7775 20.0177 32.0004 19.7333 32.0001Z" fill="#F04855"/>
<path d="M9.06661 32C8.80275 31.9998 8.57875 31.8066 8.53968 31.5456L6.9397 20.8791C6.8955 20.5877 7.09584 20.3158 7.38716 20.2716C7.67849 20.2274 7.95042 20.4277 7.99462 20.7191L9.5946 31.3856C9.6382 31.677 9.43741 31.9484 9.14608 31.992C9.11981 31.9965 9.09328 31.9992 9.06661 32Z" fill="#F04855"/>
<path d="M22.9334 32.0001C22.9068 31.9999 22.8802 31.998 22.8539 31.9942C22.5626 31.9506 22.3618 31.6791 22.4054 31.3878L24.0053 20.7212C24.0495 20.4299 24.3215 20.2296 24.6128 20.2738C24.9041 20.318 25.1045 20.5899 25.0603 20.8812L23.4603 31.5478C23.4203 31.8079 23.1966 31.9999 22.9334 32.0001Z" fill="#F04855"/>
<path d="M7.4668 13.8669H8.53344V14.9335H7.4668V13.8669Z" fill="black"/>
<path d="M10.1333 12.8003H11.2V13.8669H10.1333V12.8003Z" fill="black"/>
<path d="M13.3335 13.8669H14.4002V14.9335H13.3335V13.8669Z" fill="black"/>
<path d="M16.5332 12.8003H17.5999V13.8669H16.5332V12.8003Z" fill="black"/>
<path d="M20.2666 12.8003H21.3333V13.8669H20.2666V12.8003Z" fill="black"/>
<path d="M22.9331 13.8669H23.9998V14.9335H22.9331V13.8669Z" fill="black"/>
<path d="M16.5332 3.20038H17.5999V4.26703H16.5332V3.20038Z" fill="black"/>
<path d="M12.2666 7.46695H13.3333V8.53361H12.2666V7.46695Z" fill="black"/>
<path d="M14.9336 8.53369H16.0002V9.60035H14.9336V8.53369Z" fill="black"/>
<path d="M19.7334 7.46695H20.8001V8.53361H19.7334V7.46695Z" fill="black"/>
<path d="M2.1333 19.2004C2.13303 20.2509 2.6547 21.2329 3.52529 21.8207L6.96312 31.643C7.03792 31.857 7.23985 32.0003 7.46658 32.0003H24.5331C24.7598 32.0003 24.9617 31.857 25.0365 31.643L28.4744 21.8207C29.345 21.2329 29.8666 20.2509 29.8664 19.2004C29.8647 17.5252 28.5713 16.1348 26.9005 16.0122C28.0884 14.7081 27.9942 12.6879 26.6901 11.5C26.1003 10.9627 25.3309 10.6657 24.5331 10.6672H23.1784C24.3595 9.35654 24.2545 7.33656 22.9439 6.15538C22.3557 5.62531 21.5916 5.33252 20.7998 5.33392H20.763C20.4926 3.20281 18.6813 1.60423 16.5332 1.60063H15.802C15.4028 1.61323 15.0483 1.34736 14.9486 0.960633C14.9276 0.855034 14.9276 0.746235 14.9486 0.640636C14.9762 0.481838 14.9312 0.31904 14.826 0.196908C14.7193 0.0725094 14.5637 0.000843576 14.3998 0.000643578C13.0301 -0.0184229 11.8049 0.849701 11.3689 2.14835C11.0327 3.13994 11.1973 4.233 11.8105 5.08165C11.8755 5.16959 11.9449 5.25419 12.0185 5.33498H11.1999C9.43556 5.33198 8.00277 6.75977 7.99977 8.52415C7.99844 9.31594 8.29117 10.0801 8.82123 10.6683H7.46658C5.70253 10.6649 4.26975 12.0922 4.26635 13.8562C4.26481 14.654 4.56188 15.4235 5.09914 16.0133C3.42882 16.1358 2.1355 17.5256 2.1333 19.2004ZM4.33914 20.9161C4.64087 20.6207 5.03787 20.4421 5.45913 20.4127C5.97399 20.3788 6.47866 20.5669 6.84579 20.9295L6.96952 21.0532L8.44737 30.9336H7.84524L4.33914 20.9161ZM20.7891 21.0319L21.1416 20.6793C21.8371 19.986 22.9624 19.986 23.6579 20.6793L23.9656 20.9871L22.4734 30.9336H20.2942L20.7891 21.0319ZM19.2254 30.9336H16.5332V21.0212L16.875 20.6793C17.5705 19.986 18.6958 19.986 19.3913 20.6793L19.7219 21.01L19.2254 30.9336ZM15.4665 30.9336H12.7743L12.2777 21.01L12.6084 20.6793C13.3039 19.986 14.4292 19.986 15.1246 20.6793L15.4665 21.0212V30.9336ZM11.2105 21.0319L11.7055 30.9336H9.52629L8.03297 20.9871L8.3407 20.6793C9.03616 19.986 10.1615 19.986 10.8569 20.6793L11.2105 21.0319ZM24.1544 30.9336H23.5523L25.0344 21.0532L25.1581 20.9295C25.8475 20.2395 26.9639 20.2336 27.6605 20.9161L24.1544 30.9336ZM12.6729 4.45393C12.2635 3.88147 12.1558 3.14648 12.3839 2.48062C12.6201 1.79956 13.1923 1.28943 13.8958 1.13236C13.8958 1.14303 13.8996 1.1537 13.9012 1.16436C14.0957 2.05422 14.8912 2.68321 15.802 2.66728H16.5332C18.094 2.66921 19.4265 3.79527 19.6889 5.33392H14.3998C13.7169 5.33252 13.0755 5.00565 12.6729 4.45393ZM9.06656 8.53388C9.06656 7.3557 10.0217 6.40057 11.1999 6.40057H20.7998C21.978 6.40057 22.9331 7.3557 22.9331 8.53388C22.9331 9.71207 21.978 10.6672 20.7998 10.6672H11.1999C10.0217 10.6672 9.06656 9.71207 9.06656 8.53388ZM7.46658 11.7338H24.5331C25.7113 11.7338 26.6664 12.689 26.6664 13.8672C26.6664 15.0453 25.7113 16.0005 24.5331 16.0005H7.46658C6.28839 16.0005 5.33327 15.0453 5.33327 13.8672C5.33327 12.689 6.28839 11.7338 7.46658 11.7338ZM5.33327 17.0671H26.6664C27.8446 17.0671 28.7997 18.0222 28.7997 19.2004C28.8006 19.574 28.7016 19.941 28.5128 20.2634L28.5064 20.2575C28.3961 20.1396 28.276 20.0314 28.1474 19.9338C28.1272 19.9183 28.1074 19.9023 28.0872 19.8874C27.9615 19.7965 27.8286 19.716 27.6898 19.6468C27.6648 19.634 27.6397 19.6223 27.6136 19.61C27.472 19.5446 27.3251 19.4911 27.1746 19.45C27.1533 19.4436 27.1314 19.4399 27.1096 19.4346C26.9484 19.3927 26.7838 19.365 26.6178 19.3519C26.5501 19.3471 26.4829 19.345 26.4157 19.345C26.3485 19.345 26.2872 19.3578 26.2227 19.362C26.1384 19.3679 26.0547 19.3722 25.9715 19.385C25.8781 19.3999 25.788 19.4244 25.6968 19.4484C25.6152 19.4698 25.5336 19.4874 25.4541 19.5156C25.3545 19.5543 25.2571 19.5986 25.1624 19.6484C25.0995 19.6794 25.0344 19.7018 24.9741 19.7391C24.8189 19.8298 24.6727 19.935 24.5373 20.0532L24.412 19.9279C23.2998 18.8186 21.4997 18.8186 20.3875 19.9279L20.2664 20.0463L20.1454 19.9252C19.0332 18.816 17.2331 18.816 16.1209 19.9252L15.9998 20.0463L15.8788 19.9252C14.7666 18.816 12.9665 18.816 11.8543 19.9252L11.7332 20.0463L11.6121 19.9252C10.4999 18.816 8.69983 18.816 7.58764 19.9252L7.46231 20.0506C6.76232 19.4271 5.797 19.1949 4.89007 19.4319C4.86821 19.4372 4.84634 19.441 4.82501 19.4474C4.67454 19.4884 4.52768 19.542 4.38608 19.6074C4.35994 19.6196 4.33274 19.6314 4.30981 19.6442C4.17101 19.7134 4.03815 19.7938 3.91248 19.8847C3.89222 19.8996 3.87248 19.9156 3.85222 19.9311C3.72368 20.0287 3.60355 20.137 3.49329 20.2548L3.48689 20.2607C3.29856 19.9391 3.19949 19.5731 3.19996 19.2004C3.19996 18.0222 4.15508 17.0671 5.33327 17.0671Z" fill="black"/>
</g>
<defs>
<clipPath id="clip0">
<rect width="32" height="32" fill="white"/>
</clipPath>
</defs>
</svg>
