<svg width="64" height="64" viewBox="0 0 64 64" fill="none" xmlns="http://www.w3.org/2000/svg">
<path d="M46.1439 22.8681L45.2072 25.6576C44.1437 28.8249 40.6827 30.547 37.5142 29.4835L35.2422 28.7201L19.3658 23.3922C16.1973 22.3287 14.4764 18.8665 15.5387 15.6992L16.4754 12.9097C17.1198 10.9897 18.6452 9.6015 20.4513 9.0425C21.626 8.67762 22.9199 8.66337 24.1684 9.08262L42.3181 15.1752C45.4854 16.2386 47.2074 19.6996 46.1439 22.8681Z" fill="#78B9EB"/>
<path d="M36.4868 27.6475L35.2422 28.7201L19.3658 23.3922C16.1973 22.3287 14.4764 18.8665 15.5387 15.6992L16.4754 12.9097C17.1198 10.9897 18.6452 9.6015 20.4513 9.0425L36.4868 27.6475Z" fill="#5AAAE7"/>
<path d="M33.2021 29.129L22.6122 38.2569L21.0129 39.6347L1.49707 16.9942L3.09757 15.615L13.6874 6.48712L33.2021 29.129Z" fill="#C70024"/>
<path d="M33.2022 29.129L22.6123 38.2569L3.09766 15.615L13.6875 6.48712L33.2022 29.129Z" fill="#FF0C38"/>
<path d="M14.8031 7.8715L2.70206 18.301C2.09006 18.8276 1.15718 18.759 0.629307 18.147L0.355057 17.8288C-0.172818 17.2168 -0.102943 16.2839 0.509057 15.756L1.46643 14.9305L12.6088 5.3265C13.2156 4.80375 14.1342 4.86588 14.6647 5.461C14.6712 5.4675 14.6777 5.474 14.6828 5.48038L14.9558 5.79863C15.4836 6.41088 15.4151 7.34363 14.8031 7.8715Z" fill="#A5001E"/>
<path d="M14.6641 5.46113L3.52045 15.0651C2.91495 15.5879 1.99632 15.5244 1.46582 14.9306L12.6082 5.32663C13.2151 4.80388 14.1337 4.866 14.6641 5.46113Z" fill="#C70024"/>
<path d="M16.1285 27.3849C19.274 27.3849 21.8239 24.835 21.8239 21.6895C21.8239 18.544 19.274 15.9941 16.1285 15.9941C12.983 15.9941 10.4331 18.544 10.4331 21.6895C10.4331 24.835 12.983 27.3849 16.1285 27.3849Z" fill="#A5001E"/>
<path d="M20.1461 21.3775L19.1702 20.6097L19.4923 19.2861C19.6191 18.7655 19.2997 18.2405 18.7791 18.1137C18.2582 17.9869 17.7336 18.3064 17.6067 18.827L17.3895 19.7195C17.0221 19.6309 16.5872 19.563 16.113 19.563C14.8655 19.563 13.1362 20.031 11.9826 22.2607C11.7634 22.6846 11.8847 23.2052 12.2692 23.4882C12.3914 23.5781 13.5046 24.3665 14.9571 24.3665C15.939 24.3665 17.2551 24.0037 18.3542 22.4372L18.9461 22.9029C19.124 23.0429 19.3353 23.1106 19.5453 23.1106C19.8327 23.1106 20.1172 22.9836 20.3086 22.7402C20.6401 22.3189 20.5673 21.7087 20.1461 21.3775ZM14.9571 22.4255C14.7124 22.4255 14.4781 22.3819 14.2695 22.3204C14.7659 21.7724 15.3752 21.5036 16.113 21.5036C16.2828 21.5036 16.4467 21.518 16.6002 21.541C16.1213 22.1287 15.5713 22.4255 14.9571 22.4255Z" fill="#FFCD00"/>
<path d="M59.2317 8.5935L45.8975 2.97887C44.7565 2.4985 43.4421 3.03412 42.9618 4.17512L41.108 8.5785C41.0944 8.58513 41.0939 8.58538 41.1075 8.57875L35.6548 12.9348C35.4688 13.0833 35.2938 13.2454 35.1335 13.4181C34.7394 13.8394 34.4211 14.3286 34.1959 14.8638L29.7408 25.446C29.0313 27.1314 29.822 29.0721 31.5074 29.7818L34.6488 31.1043L34.6486 31.1045L50.0869 37.6039C51.7724 38.3134 53.714 37.5224 54.4235 35.8369L58.8822 25.2464C59.1974 24.4973 59.3218 23.6816 59.2438 22.8726L58.5745 15.9323L60.428 11.5295C60.9083 10.3881 60.3727 9.07375 59.2317 8.5935Z" fill="#FF728B"/>
<path d="M50.0867 37.6039L34.6484 31.1045L40.3881 17.471C40.7058 16.7164 41.2074 16.0531 41.8472 15.542L47.3006 11.1856L58.574 15.9317L59.2432 22.8725C59.3212 23.6815 59.197 24.4972 58.8816 25.2462L54.423 35.8367C53.7138 37.5222 51.7722 38.3135 50.0867 37.6039Z" fill="#FF3F62"/>
<path d="M58.574 15.932L53.2193 20.3619C53.045 20.5064 52.8821 20.6613 52.7316 20.8269C52.3514 21.2395 52.0449 21.7168 51.8256 22.2375L46.0688 35.912L31.5074 29.7816C29.822 29.0721 29.0313 27.1313 29.7408 25.4459L34.1959 14.8636C34.4211 14.3285 34.7394 13.8393 35.1335 13.418C35.2938 13.2451 35.4688 13.083 35.6548 12.9346L41.1075 8.57863L58.574 15.932Z" fill="#FF728B"/>
<path d="M52.7316 20.8269C52.3513 21.2395 52.0448 21.7167 51.8256 22.2375L49.0936 28.727L31.481 21.3121L34.1958 14.8636C34.4211 14.3285 34.7393 13.8392 35.1335 13.418L52.7316 20.8269Z" fill="#FFA5B5"/>
<path d="M59.2437 22.872L58.5735 15.932L53.2197 20.362C53.0451 20.5069 52.8821 20.6609 52.732 20.8265C52.3516 21.2393 52.045 21.7166 51.825 22.238L46.0688 35.9124L50.0861 37.6034C51.772 38.3136 53.714 37.5219 54.423 35.8374L58.8815 25.2463C59.1971 24.4971 59.3214 23.682 59.2437 22.872Z" fill="#FF0C38"/>
<path d="M43.0801 21.6246C43.1248 22.7485 42.0177 23.59 40.9623 23.2008C40.9382 23.1919 40.9142 23.1824 40.8902 23.1723C40.8663 23.1621 40.8427 23.1516 40.8195 23.1405C39.8035 22.6578 39.6315 21.2778 40.4668 20.5243L42.3213 18.8513C42.5698 18.627 42.9671 18.7944 42.9804 19.1288L43.0801 21.6246Z" fill="#FF3F62"/>
<path d="M44.6549 10.071L44.598 10.2095L39.1446 14.5658C38.9584 14.7145 38.7836 14.8763 38.6232 15.0496C38.2299 15.4701 37.9116 15.9605 37.6865 16.4949L32.0492 30.0088L31.5071 29.781C29.8226 29.072 29.0307 27.1313 29.7411 25.4454L34.1957 14.8633C34.4209 14.3289 34.7391 13.8399 35.1337 13.418C35.2941 13.2446 35.4689 13.0829 35.6551 12.9341L41.1072 8.57913C41.1072 8.57788 41.1085 8.57788 41.1085 8.57788L44.6549 10.071Z" fill="#FF3F62"/>
<path d="M38.7346 14.9345C38.6957 14.972 38.6596 15.0109 38.6233 15.0496C38.2299 15.4701 37.9117 15.9605 37.6866 16.4949L35.0511 22.8139L31.4814 21.3117L34.1958 14.8634C34.4209 14.329 34.7392 13.84 35.1338 13.4181L38.7346 14.9345Z" fill="#FF728B"/>
<path d="M58.574 15.9326L41.1079 8.57838L42.9617 4.175C43.442 3.034 44.7564 2.49838 45.8974 2.97875L59.2314 8.59338C60.3724 9.07375 60.908 10.3881 60.4277 11.5291L58.574 15.9326Z" fill="#FF3F62"/>
<path d="M47.3161 3.57613L44.6548 10.0711L41.1084 8.57801L42.9611 4.17513C43.4424 3.03401 44.757 2.49838 45.8981 2.97838L47.3161 3.57613Z" fill="#FF0C38"/>
<path d="M60.5389 29.7655L51.2921 58.1933C50.8974 59.4055 49.7679 60.2271 48.4923 60.2271H15.6591C14.3886 60.2271 13.2616 59.412 12.8632 58.2061L3.46094 29.7655H60.5389Z" fill="#7ED63E"/>
<path d="M60.5389 29.7655L51.292 58.1933C50.8974 59.4055 49.7679 60.2271 48.4922 60.2271H21.1979C19.9274 60.2271 18.8004 59.412 18.402 58.2061L9.00098 29.7655H60.5389Z" fill="#A4E276"/>
<path d="M61.3235 29.1951C61.141 28.9439 60.849 28.7951 60.5383 28.7951H9.05297C8.5171 28.7951 8.08259 29.2296 8.08259 29.7655C8.08259 30.3014 8.5171 30.7359 9.05297 30.7359H59.2023L55.7046 41.4895H49.9686L51.5368 34.1214C51.6483 33.5971 51.314 33.0817 50.7898 32.9702C50.2658 32.8585 49.7502 33.193 49.6387 33.7172L47.9845 41.4895H41.4472L42.1098 34.0047C42.1571 33.4709 41.7627 32.9999 41.2287 32.9526C40.6962 32.9051 40.2238 33.2997 40.1766 33.8337L39.4988 41.4895H32.9702V33.9192C32.9702 33.3834 32.5357 32.9489 31.9998 32.9489C31.464 32.9489 31.0295 33.3834 31.0295 33.9192V41.4895H24.717L24.0392 33.8337C23.992 33.2999 23.5197 32.9061 22.9871 32.9526C22.4532 32.9999 22.0588 33.4709 22.106 34.0047L22.7686 41.4895H21.5815C21.0456 41.4895 20.6111 41.924 20.6111 42.4599C20.6111 42.9957 21.0456 43.4302 21.5815 43.4302H22.9403L23.5515 50.3336H18.1137L16.6443 43.4302H17.7001C18.236 43.4302 18.6705 42.9957 18.6705 42.4599C18.6705 41.924 18.236 41.4895 17.7001 41.4895H16.2313L14.5771 33.7172C14.4655 33.1931 13.9506 32.858 13.426 32.9702C12.9018 33.0817 12.5673 33.5971 12.679 34.1214L14.2472 41.4895H8.35897L4.80422 30.7359H5.17159C5.70747 30.7359 6.14197 30.3014 6.14197 29.7655C6.14197 29.2296 5.70747 28.7951 5.17159 28.7951H3.46159C3.15009 28.7951 2.85759 28.9447 2.67509 29.1971C2.49272 29.4496 2.44247 29.7742 2.54022 30.07L11.9416 58.5112C12.4727 60.1179 13.9665 61.1975 15.6586 61.1975H19.2243C19.2251 61.1975 19.2257 61.1976 19.2266 61.1976C19.2277 61.1976 19.2291 61.1975 19.2302 61.1975H25.3991C25.3995 61.1975 25.4 61.1975 25.4003 61.1975C25.4008 61.1975 25.4012 61.1975 25.4017 61.1975H38.814C38.8145 61.1975 38.8148 61.1975 38.8153 61.1975C38.8157 61.1975 38.8162 61.1975 38.8166 61.1975H44.9855C44.9866 61.1975 44.988 61.1976 44.9891 61.1976C44.9898 61.1976 44.9905 61.1975 44.9913 61.1975H48.4918C50.1926 61.1975 51.6887 60.1109 52.2148 58.4935L55.0955 49.6367C55.2612 49.1271 54.9823 48.5796 54.4727 48.4139C53.963 48.2482 53.4157 48.527 53.2498 49.0366L52.828 50.3339H48.0862L49.5556 43.4305H55.0735L54.4506 45.3455C54.2848 45.8551 54.5637 46.4026 55.0733 46.5684C55.1731 46.6007 55.2741 46.6162 55.3736 46.6162C55.7826 46.6162 56.1628 46.3556 56.2962 45.9457L61.4611 30.0659C61.5572 29.7701 61.5061 29.4466 61.3235 29.1951ZM39.3271 43.4302L38.716 50.3336H32.9702V43.4302H39.3271ZM39.8743 59.2566L40.4923 52.2744H45.6888L44.2026 59.2566H39.8743ZM37.9261 59.2566H32.9702V52.2744H38.5441L37.9261 59.2566ZM26.2897 59.2566L25.6717 52.2744H31.0297V59.2566H26.2897ZM24.8887 43.4302H31.0296V50.3336H25.5L24.8887 43.4302ZM23.7235 52.2744L24.3415 59.2566H20.013L18.5268 52.2744H23.7235ZM14.6602 43.4302L16.1296 50.3336H11.2825L9.00059 43.4302H14.6602ZM13.7842 57.902L11.924 52.2742H16.5427L18.029 59.2565H15.6587C14.8053 59.2566 14.0521 58.7122 13.7842 57.902ZM52.1968 52.2744L50.3695 57.893C50.1042 58.7086 49.3498 59.2565 48.4921 59.2565H46.1872L47.6735 52.2742H52.1968V52.2744ZM46.1021 50.3336H40.6643L41.2755 43.4302H47.5716L46.1021 50.3336Z" fill="#5EAC24"/>
<path d="M64 29.7655C64 30.908 63.5329 31.9469 62.7799 32.6986C62.0269 33.4516 60.988 33.9188 59.8455 33.9188H4.1545C1.86963 33.9188 0 32.0505 0 29.7656C0 28.6231 0.467125 27.5843 1.22012 26.8313C1.97312 26.0783 3.012 25.6111 4.1545 25.6111H59.8455C62.0527 25.6111 63.8731 27.3565 63.9935 29.534C63.9974 29.6103 64 29.6879 64 29.7655Z" fill="#4E901E"/>
<path d="M63.9934 29.5339H8.30239C6.09514 29.5339 4.27601 27.7885 4.15576 25.611H59.8455C62.0526 25.611 63.873 27.3564 63.9934 29.5339Z" fill="#5EAC24"/>
<path d="M34.8179 8.53138V28.2556C34.8179 28.9866 34.5359 29.6542 34.0753 30.1562C33.559 30.719 32.819 31.0736 32 31.0736C30.45 31.0736 29.1821 29.8056 29.1821 28.2557V8.53138C29.1821 6.98263 30.4501 5.71475 32 5.71475C32.775 5.71475 33.4801 6.03175 33.9899 6.54275C34.0184 6.57125 34.0468 6.601 34.0753 6.632C34.5359 7.13275 34.8179 7.80175 34.8179 8.53138Z" fill="#47821C"/>
<path d="M34.8177 8.53138V28.2556C34.8177 28.9866 34.5357 29.6543 34.0751 30.1563C33.6132 29.6543 33.3311 28.9866 33.3311 28.2556V8.53138C33.3311 7.80163 33.6131 7.13275 34.0751 6.632C34.5357 7.13275 34.8177 7.80175 34.8177 8.53138Z" fill="#4E901E"/>
<path d="M31.9997 29.1699C32.4618 29.1699 32.8363 28.7953 32.8363 28.3333C32.8363 27.8712 32.4618 27.4966 31.9997 27.4966C31.5377 27.4966 31.1631 27.8712 31.1631 28.3333C31.1631 28.7953 31.5377 29.1699 31.9997 29.1699Z" fill="#A4E276"/>
</svg>
