<svg width="48" height="48" viewBox="0 0 48 48" fill="none" xmlns="http://www.w3.org/2000/svg">
<path d="M24 48C37.2548 48 48 37.2548 48 24C48 10.7452 37.2548 0 24 0C10.7452 0 0 10.7452 0 24C0 37.2548 10.7452 48 24 48Z" fill="#4D76A1"/>
<path fill-rule="evenodd" clip-rule="evenodd" d="M23.0933 34.5262H24.977C24.977 34.5262 25.546 34.4637 25.8365 34.1506C26.1039 33.8631 26.0953 33.3232 26.0953 33.3232C26.0953 33.3232 26.0585 30.7956 27.2316 30.4234C28.388 30.0567 29.873 32.8662 31.447 33.9465C32.6372 34.7641 33.5416 34.5848 33.5416 34.5848L37.7501 34.5262C37.7501 34.5262 39.9517 34.3906 38.9078 32.6596C38.8222 32.518 38.2998 31.3791 35.7787 29.0389C33.1399 26.5897 33.4933 26.9858 36.672 22.7491C38.6079 20.1689 39.3818 18.5936 39.1401 17.919C38.9095 17.2764 37.4857 17.4462 37.4857 17.4462L32.7471 17.4757C32.7471 17.4757 32.3959 17.4278 32.1353 17.5836C31.8808 17.7363 31.7169 18.0922 31.7169 18.0922C31.7169 18.0922 30.967 20.0889 29.9667 21.7869C27.8567 25.3699 27.013 25.559 26.6682 25.3366C25.866 24.818 26.0662 23.2535 26.0662 22.142C26.0662 18.6698 26.5929 17.2221 25.0408 16.8473C24.5257 16.7228 24.1466 16.6406 22.8293 16.6274C21.1386 16.6098 19.7075 16.6325 18.8972 17.0295C18.3582 17.2935 17.9423 17.8818 18.1956 17.9156C18.5088 17.9575 19.2181 18.1068 19.5941 18.6189C20.0797 19.2794 20.0626 20.7631 20.0626 20.7631C20.0626 20.7631 20.3416 24.8506 19.411 25.3584C18.7723 25.7066 17.8961 24.9956 16.015 21.745C15.0511 20.0799 14.3234 18.2394 14.3234 18.2394C14.3234 18.2394 14.183 17.8954 13.9328 17.7115C13.629 17.4886 13.2046 17.4176 13.2046 17.4176L8.70178 17.4471C8.70178 17.4471 8.02582 17.4659 7.77768 17.7598C7.55693 18.0212 7.76014 18.562 7.76014 18.562C7.76014 18.562 11.2854 26.8096 15.277 30.9658C18.937 34.7765 23.0933 34.5262 23.0933 34.5262Z" fill="white"/>
</svg>
