<svg width="48" height="48" viewBox="0 0 48 48" fill="none" xmlns="http://www.w3.org/2000/svg">
<path d="M24.006 0H23.994C10.761 0 0 10.764 0 24C0 29.25 1.692 34.116 4.569 38.067L1.578 46.983L10.803 44.034C14.598 46.548 19.125 48 24.006 48C37.239 48 48 37.233 48 24C48 10.767 37.239 0 24.006 0Z" fill="#4CAF50"/>
<path d="M37.9711 33.8909C37.3922 35.5259 35.0942 36.8819 33.2612 37.2779C32.0072 37.5449 30.3692 37.7579 24.8552 35.4719C17.8022 32.5499 13.2602 25.3829 12.9062 24.9179C12.5672 24.4529 10.0562 21.1229 10.0562 17.6789C10.0562 14.2349 11.8052 12.5579 12.5102 11.8379C13.0892 11.2469 14.0462 10.9769 14.9642 10.9769C15.2612 10.9769 15.5282 10.9919 15.7682 11.0039C16.4732 11.0339 16.8272 11.0759 17.2922 12.1889C17.8712 13.5839 19.2812 17.0279 19.4492 17.3819C19.6202 17.7359 19.7912 18.2159 19.5512 18.6809C19.3262 19.1609 19.1282 19.3739 18.7742 19.7819C18.4202 20.1899 18.0842 20.5019 17.7302 20.9399C17.4062 21.3209 17.0402 21.7289 17.4482 22.4339C17.8562 23.1239 19.2662 25.4249 21.3422 27.2729C24.0212 29.6579 26.1932 30.4199 26.9701 30.7439C27.5492 30.9839 28.2392 30.9269 28.6622 30.4769C29.1992 29.8979 29.8622 28.9379 30.5372 27.9929C31.0172 27.3149 31.6232 27.2309 32.2592 27.4709C32.9072 27.6959 36.3362 29.3909 37.0412 29.7419C37.7462 30.0959 38.2112 30.2639 38.3822 30.5609C38.5501 30.8579 38.5501 32.2529 37.9711 33.8909Z" fill="#FAFAFA"/>
</svg>
